<svg id="svg" version="1.1" xmlns="http://www.w3.org/2000/svg" xmlns:xlink="http://www.w3.org/1999/xlink" width="400" height="366.60039761431415" viewBox="0, 0, 400,366.60039761431415"><g id="svgg"><path id="path0" d="M0.000 183.318 L 0.000 366.636 200.000 366.636 L 400.000 366.636 400.000 183.318 L 400.000 0.000 200.000 0.000 L 0.000 0.000 0.000 183.318 M55.640 20.990 L 55.735 41.063 28.234 41.063 L 0.733 41.063 0.733 21.143 C 0.733 10.186,0.844 1.111,0.980 0.975 C 1.116 0.840,13.448 0.771,28.386 0.823 L 55.545 0.917 55.640 20.990 M91.109 27.498 L 91.109 54.079 73.786 54.174 L 56.462 54.269 56.462 27.746 C 56.462 13.158,56.574 1.111,56.710 0.974 C 56.846 0.838,64.642 0.769,74.034 0.821 L 91.109 0.917 91.109 27.498 M129.976 1.192 C 130.065 1.444,130.184 13.446,130.239 27.864 L 130.339 54.079 111.182 54.174 L 92.026 54.269 92.026 27.745 C 92.026 13.158,92.136 1.112,92.270 0.978 C 92.762 0.485,129.799 0.695,129.976 1.192 M162.700 11.457 L 162.798 21.998 146.843 21.998 L 130.889 21.998 130.889 11.610 C 130.889 5.897,131.001 1.110,131.137 0.974 C 131.274 0.837,138.410 0.768,146.994 0.821 L 162.603 0.917 162.700 11.457 M200.094 27.593 L 200.188 54.269 181.946 54.174 L 163.703 54.079 163.608 27.864 C 163.556 13.446,163.593 1.442,163.690 1.188 C 163.829 0.824,167.675 0.746,181.933 0.821 L 200.000 0.917 200.094 27.593 M233.091 27.773 L 233.185 54.629 283.220 54.629 L 333.254 54.629 333.355 48.671 L 333.456 42.713 338.588 42.713 L 343.721 42.713 343.905 170.669 C 344.005 241.045,344.221 298.831,344.385 299.083 C 344.599 299.415,346.143 299.542,349.976 299.542 L 355.270 299.542 355.270 304.308 L 355.270 309.074 294.594 309.074 L 233.918 309.074 233.824 337.580 L 233.731 366.086 217.049 366.086 L 200.367 366.086 200.273 337.581 L 200.179 309.076 115.213 308.983 L 30.247 308.891 30.149 300.000 L 30.051 291.109 33.907 291.109 L 37.764 291.109 37.764 293.492 L 37.764 295.875 47.113 295.875 L 56.462 295.875 56.462 179.845 L 56.462 63.815 51.421 63.713 L 46.379 63.611 46.284 52.704 L 46.188 41.797 50.958 41.797 L 55.729 41.797 55.729 48.213 L 55.729 54.629 93.309 54.629 L 130.889 54.629 130.889 38.667 L 130.889 22.705 134.464 22.810 L 138.038 22.915 138.134 38.772 L 138.230 54.629 169.573 54.629 L 200.917 54.629 200.917 27.925 C 200.917 13.239,201.028 1.110,201.165 0.974 C 201.301 0.837,208.520 0.769,217.205 0.821 L 232.997 0.917 233.091 27.773 M271.588 27.593 L 271.682 54.269 252.706 54.174 L 233.731 54.079 233.636 27.864 C 233.583 13.446,233.620 1.442,233.717 1.188 C 233.856 0.824,237.849 0.747,252.694 0.822 L 271.494 0.917 271.588 27.593 M304.219 27.589 L 304.313 54.262 288.362 54.262 L 272.411 54.262 272.411 27.742 C 272.411 13.156,272.522 1.110,272.659 0.974 C 272.796 0.837,279.931 0.768,288.516 0.821 L 304.125 0.917 304.219 27.589 M343.538 21.448 L 343.538 42.163 338.231 42.163 L 332.924 42.163 332.823 48.121 L 332.722 54.079 318.882 54.175 L 305.041 54.271 305.041 27.747 C 305.041 13.158,305.151 1.112,305.286 0.978 C 305.420 0.843,314.082 0.733,324.534 0.733 L 343.538 0.733 343.538 21.448 M398.811 27.408 L 398.905 53.900 371.680 53.806 L 344.455 53.712 344.360 27.722 C 344.292 8.755,344.379 1.596,344.682 1.230 C 345.028 0.813,349.598 0.744,371.908 0.823 L 398.717 0.917 398.811 27.408 M162.786 30.247 L 162.786 37.764 150.687 37.764 L 138.588 37.764 138.588 30.492 C 138.588 26.493,138.698 23.110,138.833 22.976 C 138.967 22.841,144.412 22.731,150.932 22.731 L 162.786 22.731 162.786 30.247 M162.786 46.384 L 162.786 54.272 150.779 54.175 L 138.772 54.079 138.672 46.756 C 138.617 42.729,138.653 39.223,138.752 38.965 C 138.893 38.598,141.515 38.497,150.859 38.497 L 162.786 38.497 162.786 46.384 M45.830 48.396 L 45.830 54.995 23.281 54.995 L 0.733 54.995 0.733 48.396 L 0.733 41.797 23.281 41.797 L 45.830 41.797 45.830 48.396 M398.900 73.513 L 398.900 92.397 371.677 92.303 L 344.455 92.209 344.359 73.877 C 344.307 63.795,344.343 55.339,344.439 55.087 C 344.578 54.726,350.382 54.629,371.758 54.629 L 398.900 54.629 398.900 73.513 M45.750 60.026 L 45.853 64.141 50.883 64.243 L 55.912 64.345 56.014 76.994 C 56.071 83.951,56.026 90.015,55.915 90.470 L 55.714 91.297 28.315 91.203 L 0.917 91.109 0.821 73.877 C 0.769 64.400,0.805 56.438,0.902 56.184 C 1.042 55.819,5.731 55.743,23.363 55.818 L 45.646 55.912 45.750 60.026 M95.692 76.260 L 77.544 76.444 77.449 102.933 L 77.355 129.423 102.289 129.423 L 127.223 129.423 127.223 127.957 L 127.223 126.492 139.230 126.583 L 151.237 126.673 151.353 127.673 L 151.468 128.672 165.285 128.772 C 172.884 128.828,184.010 128.827,190.009 128.770 L 200.917 128.668 200.917 105.581 L 200.917 82.493 190.323 82.493 C 178.225 82.493,179.285 82.848,179.285 78.797 L 179.285 76.260 172.227 76.169 C 160.239 76.013,114.791 76.067,95.692 76.260 M233.174 137.030 C 233.171 170.454,233.170 206.379,233.172 216.865 C 233.175 227.351,233.178 247.273,233.179 261.137 L 233.181 286.343 240.697 286.343 L 248.213 286.343 248.213 267.461 L 248.213 248.579 251.879 248.579 L 255.545 248.579 255.545 267.461 L 255.545 286.343 263.611 286.351 C 268.048 286.356,276.627 286.360,282.676 286.360 C 288.726 286.360,299.863 286.356,307.424 286.351 L 321.173 286.343 321.173 241.980 L 321.173 197.617 313.107 197.617 L 305.041 197.617 305.041 186.618 L 305.041 175.619 312.741 175.619 L 320.440 175.619 320.440 163.520 L 320.440 151.421 312.741 151.421 L 305.041 151.421 305.041 140.238 L 305.041 129.056 312.741 129.056 L 320.440 129.056 320.440 102.658 L 320.440 76.260 276.810 76.260 L 233.181 76.260 233.174 137.030 M113.568 102.750 L 113.474 128.873 95.875 128.873 L 78.277 128.873 78.183 102.750 L 78.089 76.627 95.875 76.627 L 113.662 76.627 113.568 102.750 M144.455 86.709 L 144.455 96.792 154.715 96.792 L 164.974 96.792 165.072 86.801 L 165.170 76.810 172.042 76.711 L 178.914 76.611 178.907 94.401 L 178.900 112.191 146.645 112.191 L 114.390 112.191 114.390 94.409 L 114.390 76.627 129.423 76.627 L 144.455 76.627 144.455 86.709 M164.436 86.343 L 164.436 95.875 154.812 95.973 L 145.188 96.071 145.188 86.343 L 145.188 76.615 154.812 76.713 L 164.436 76.810 164.436 86.343 M239.780 80.660 L 239.780 84.326 243.630 84.326 L 247.479 84.326 247.479 80.655 L 247.479 76.983 259.120 77.080 L 270.761 77.177 270.855 102.742 L 270.949 128.307 270.122 128.508 C 269.667 128.619,261.292 128.663,251.512 128.608 L 233.731 128.506 233.636 103.208 C 233.583 89.294,233.619 77.704,233.716 77.452 C 233.836 77.138,234.818 76.994,236.835 76.994 L 239.780 76.994 239.780 80.660 M246.668 80.385 L 246.563 83.776 243.538 83.883 L 240.513 83.989 240.513 80.491 L 240.513 76.994 243.643 76.994 L 246.774 76.994 246.668 80.385 M291.753 102.750 L 291.659 128.506 281.577 128.506 L 271.494 128.506 271.399 103.208 C 271.347 89.294,271.383 77.704,271.479 77.452 C 271.613 77.101,274.011 76.994,281.751 76.994 L 291.847 76.994 291.753 102.750 M319.890 97.159 L 319.890 117.140 306.233 117.236 L 292.576 117.332 292.576 97.159 L 292.576 76.985 306.233 77.081 L 319.890 77.177 319.890 97.159 M200.099 90.467 L 200.199 97.892 189.925 97.892 L 179.652 97.892 179.652 90.620 C 179.652 86.621,179.764 83.236,179.902 83.098 C 180.039 82.961,184.618 82.892,190.076 82.946 L 200.000 83.043 200.099 90.467 M56.007 109.349 L 56.102 126.856 28.418 126.856 L 0.733 126.856 0.733 109.502 C 0.733 99.957,0.844 92.037,0.980 91.901 C 1.116 91.765,13.531 91.697,28.569 91.748 L 55.912 91.842 56.007 109.349 M398.900 109.627 L 398.900 126.128 371.677 126.034 L 344.455 125.940 344.359 109.991 C 344.306 101.219,344.342 93.836,344.439 93.584 C 344.578 93.223,350.382 93.126,371.758 93.126 L 398.900 93.126 398.900 109.627 M200.183 105.408 L 200.183 112.191 189.918 112.191 L 179.652 112.191 179.652 105.408 L 179.652 98.625 189.918 98.625 L 200.183 98.625 200.183 105.408 M126.405 120.898 L 126.306 128.873 120.440 128.873 L 114.574 128.873 114.475 120.898 L 114.376 112.924 120.440 112.924 L 126.504 112.924 126.405 120.898 M139.605 119.432 L 139.505 125.940 133.364 126.040 L 127.223 126.141 127.223 119.532 L 127.223 112.924 133.464 112.924 L 139.705 112.924 139.605 119.432 M151.054 119.523 L 151.054 126.123 145.738 126.123 L 140.422 126.123 140.422 119.523 L 140.422 112.924 145.738 112.924 L 151.054 112.924 151.054 119.523 M178.918 120.628 L 178.918 128.332 165.445 128.235 L 151.971 128.139 151.872 120.532 L 151.772 112.924 165.345 112.924 L 178.918 112.924 178.918 120.628 M200.183 120.623 L 200.183 128.323 189.918 128.323 L 179.652 128.323 179.652 120.623 L 179.652 112.924 189.918 112.924 L 200.183 112.924 200.183 120.623 M319.890 123.373 L 319.890 128.506 306.324 128.506 L 292.759 128.506 292.657 123.277 L 292.555 118.048 306.223 118.144 L 319.890 118.240 319.890 123.373 M398.900 145.738 L 398.900 164.620 371.586 164.620 L 344.271 164.620 344.271 145.982 C 344.271 135.732,344.381 127.235,344.516 127.101 C 344.650 126.966,356.942 126.856,371.830 126.856 L 398.900 126.856 398.900 145.738 M55.915 128.414 C 56.025 128.868,56.070 136.911,56.014 146.288 L 55.912 163.336 28.323 163.430 L 0.733 163.524 0.733 145.801 C 0.733 136.054,0.843 127.968,0.978 127.834 C 1.112 127.699,13.483 127.589,28.468 127.589 L 55.715 127.589 55.915 128.414 M283.486 129.698 C 283.792 130.050,284.868 131.742,285.878 133.456 C 286.887 135.170,289.797 140.020,292.344 144.235 L 296.975 151.898 296.975 163.504 L 296.975 175.111 292.521 182.606 C 290.071 186.728,287.252 191.503,286.256 193.217 C 285.260 194.931,284.187 196.622,283.871 196.975 C 283.029 197.915,234.130 197.976,233.770 197.037 C 233.479 196.279,233.479 130.394,233.770 129.636 C 234.130 128.697,282.671 128.757,283.486 129.698 M304.222 140.147 L 304.319 151.054 300.739 151.045 L 297.159 151.036 291.855 142.154 C 288.938 137.269,286.017 132.461,285.364 131.469 C 283.716 128.966,283.459 129.033,294.342 129.142 L 304.125 129.239 304.222 140.147 M81.027 217.782 L 81.027 286.709 116.770 286.709 L 152.514 286.709 152.609 267.369 L 152.704 248.029 158.387 248.029 L 164.070 248.029 164.139 255.912 C 164.177 260.247,164.218 267.216,164.230 271.397 L 164.253 278.999 175.344 279.096 L 186.434 279.193 186.539 282.776 L 186.645 286.358 194.056 286.259 L 201.467 286.159 201.389 274.610 C 201.347 268.258,201.305 259.143,201.297 254.354 L 201.283 245.646 190.284 245.646 L 179.285 245.646 179.285 197.250 L 179.285 148.854 143.355 148.854 L 107.424 148.854 107.405 165.628 C 107.395 174.853,107.354 183.886,107.314 185.701 L 107.241 189.001 104.491 189.001 L 101.742 189.001 101.647 168.928 L 101.552 148.854 91.289 148.854 L 81.027 148.854 81.027 217.782 M200.183 186.089 C 200.183 210.820,200.306 223.249,200.550 223.098 C 200.790 222.949,200.917 210.140,200.917 185.863 C 200.917 161.435,200.792 148.854,200.550 148.854 C 200.308 148.854,200.183 161.510,200.183 186.089 M101.192 157.654 L 101.192 165.720 91.292 165.720 L 81.393 165.720 81.393 157.654 L 81.393 149.588 91.292 149.588 L 101.192 149.588 101.192 157.654 M127.135 165.811 L 127.039 182.035 117.507 182.035 L 107.974 182.035 107.879 165.811 L 107.783 149.588 117.507 149.588 L 127.230 149.588 127.135 165.811 M163.886 174.885 L 163.886 200.183 145.921 200.183 L 127.956 200.183 127.956 174.885 L 127.956 149.588 145.921 149.588 L 163.886 149.588 163.886 174.885 M178.552 206.424 L 178.552 263.261 171.677 263.161 L 164.803 263.061 164.714 206.324 L 164.625 149.588 171.588 149.588 L 178.552 149.588 178.552 206.424 M319.707 163.336 L 319.707 174.885 308.708 174.885 L 297.709 174.885 297.709 163.336 L 297.709 151.787 308.708 151.787 L 319.707 151.787 319.707 163.336 M55.915 165.078 C 56.025 165.532,56.070 173.245,56.014 182.218 L 55.912 198.533 28.414 198.533 L 0.917 198.533 0.821 181.393 L 0.726 164.253 28.220 164.253 L 55.715 164.253 55.915 165.078 M398.900 181.854 L 398.900 198.355 371.677 198.261 L 344.455 198.167 344.353 182.585 C 344.297 174.015,344.341 166.632,344.451 166.178 L 344.652 165.353 371.776 165.353 L 398.900 165.353 398.900 181.854 M101.008 174.335 L 101.008 182.035 91.292 182.035 L 81.577 182.035 81.477 174.712 C 81.422 170.685,81.459 167.176,81.559 166.915 C 81.703 166.540,83.758 166.461,91.375 166.538 L 101.008 166.636 101.008 174.335 M304.308 186.618 L 304.308 197.617 294.378 197.617 C 288.917 197.617,284.504 197.480,284.571 197.313 C 284.638 197.146,287.557 192.196,291.057 186.314 L 297.422 175.619 300.865 175.619 L 304.308 175.619 304.308 186.618 M101.192 186.236 L 101.192 189.521 104.216 189.628 L 107.241 189.734 107.343 194.839 C 107.420 198.677,107.329 200.017,106.977 200.241 C 105.989 200.868,81.861 200.610,81.616 199.970 C 81.493 199.651,81.393 195.691,81.393 191.171 L 81.393 182.951 91.292 182.951 L 101.192 182.951 101.192 186.236 M127.138 191.476 L 127.039 200.000 117.599 200.098 L 108.158 200.196 108.158 196.031 C 108.158 193.740,108.050 189.860,107.918 187.409 L 107.678 182.951 117.457 182.951 L 127.236 182.951 127.138 191.476 M271.677 223.098 L 271.677 247.846 259.945 247.846 L 248.213 247.846 248.213 241.613 L 248.213 235.380 240.880 235.380 L 233.547 235.380 233.547 216.865 L 233.547 198.350 252.612 198.350 L 271.677 198.350 271.677 223.098 M320.724 222.365 C 320.780 235.472,320.736 246.568,320.626 247.022 L 320.426 247.848 296.510 247.755 L 272.594 247.663 272.500 223.004 L 272.405 198.345 296.514 198.439 L 320.623 198.533 320.724 222.365 M398.812 217.690 L 398.717 236.297 371.586 236.297 L 344.455 236.297 344.359 218.148 C 344.307 208.167,344.343 199.794,344.439 199.542 C 344.578 199.181,350.382 199.083,371.761 199.083 L 398.907 199.083 398.812 217.690 M55.912 217.415 L 55.912 235.197 28.323 235.291 L 0.733 235.385 0.733 217.415 L 0.733 199.445 28.323 199.539 L 55.912 199.633 55.912 217.415 M127.135 215.490 L 127.231 229.881 119.528 229.881 L 111.824 229.881 111.824 231.901 L 111.824 233.922 96.700 233.826 L 81.577 233.731 81.481 217.623 C 81.406 204.980,81.485 201.451,81.848 201.220 C 82.102 201.057,92.374 200.964,104.675 201.012 L 127.039 201.100 127.135 215.490 M163.886 224.015 L 163.886 247.113 151.054 247.113 L 138.222 247.113 138.222 243.996 L 138.222 240.880 133.089 240.880 L 127.956 240.880 127.956 220.898 L 127.956 200.917 145.921 200.917 L 163.886 200.917 163.886 224.015 M127.223 236.114 L 127.223 241.613 132.356 241.613 L 137.489 241.613 137.489 249.313 L 137.489 257.012 132.906 257.012 L 128.323 257.012 128.323 252.246 L 128.323 247.479 120.440 247.479 L 112.557 247.479 112.557 239.047 L 112.557 230.614 119.890 230.614 L 127.223 230.614 127.223 236.114 M111.741 241.159 L 111.841 247.488 96.709 247.392 L 81.577 247.296 81.475 241.274 C 81.399 236.703,81.487 235.180,81.842 234.953 C 82.099 234.788,88.909 234.693,96.975 234.742 L 111.641 234.830 111.741 241.159 M55.912 253.896 L 55.912 271.494 28.323 271.588 L 0.733 271.682 0.733 253.896 L 0.733 236.109 28.323 236.203 L 55.912 236.297 55.912 253.896 M247.655 248.063 C 247.820 255.353,247.793 260.145,247.584 260.353 C 247.390 260.548,244.324 260.652,240.486 260.595 L 233.731 260.495 233.634 248.766 C 233.580 242.315,233.616 236.829,233.714 236.575 C 233.847 236.227,235.554 236.114,240.637 236.114 L 247.384 236.114 247.655 248.063 M398.900 255.179 L 398.900 273.144 371.586 273.144 L 344.271 273.144 344.271 255.423 C 344.271 245.677,344.381 237.592,344.516 237.458 C 344.650 237.324,356.942 237.214,371.830 237.214 L 398.900 237.214 398.900 255.179 M200.832 254.720 L 200.733 263.061 190.101 263.061 L 179.468 263.061 179.370 254.720 L 179.271 246.379 190.101 246.379 L 200.930 246.379 200.832 254.720 M152.067 259.853 L 152.164 271.677 140.243 271.677 L 128.323 271.677 128.323 264.711 L 128.323 257.745 133.272 257.745 L 138.222 257.745 138.222 252.788 L 138.222 247.830 145.096 247.930 L 151.971 248.029 152.067 259.853 M106.691 267.099 L 106.691 285.986 94.134 285.889 L 81.577 285.793 81.481 267.461 C 81.429 257.379,81.465 248.923,81.561 248.671 C 81.697 248.317,84.570 248.213,94.214 248.213 L 106.691 248.213 106.691 267.099 M127.589 267.094 L 127.589 285.976 117.507 285.976 L 107.424 285.976 107.424 267.094 L 107.424 248.213 117.507 248.213 L 127.589 248.213 127.589 267.094 M271.677 267.285 L 271.677 285.991 263.886 285.892 L 256.095 285.793 256.000 267.186 L 255.905 248.579 263.791 248.579 L 271.677 248.579 271.677 267.285 M292.942 267.284 L 292.942 285.988 282.768 285.890 L 272.594 285.793 272.499 267.186 L 272.404 248.579 282.673 248.579 L 292.942 248.579 292.942 267.284 M320.801 266.819 C 320.798 276.852,320.663 285.268,320.501 285.523 C 320.272 285.884,317.329 285.965,307.033 285.889 L 293.859 285.793 293.764 267.186 L 293.669 248.579 307.238 248.579 L 320.807 248.579 320.801 266.819 M247.663 267.461 L 247.663 273.327 240.605 273.427 L 233.547 273.526 233.547 267.713 C 233.547 264.516,233.661 261.787,233.799 261.648 C 233.938 261.509,237.114 261.441,240.857 261.495 L 247.663 261.595 247.663 267.461 M200.337 263.834 C 200.847 264.030,200.917 265.345,200.917 274.841 L 200.917 285.626 194.042 285.526 L 187.168 285.426 187.062 282.035 L 186.957 278.643 176.368 278.643 C 170.544 278.643,165.519 278.543,165.200 278.421 C 164.430 278.126,164.313 264.163,165.078 263.854 C 165.739 263.588,199.644 263.568,200.337 263.834 M37.580 281.393 L 37.580 290.192 19.157 290.288 L 0.733 290.383 0.733 281.393 L 0.733 272.404 19.157 272.499 L 37.580 272.594 37.580 281.393 M55.873 272.991 C 56.163 273.747,56.163 294.172,55.873 294.929 C 55.679 295.435,54.556 295.509,47.074 295.509 L 38.497 295.509 38.497 283.960 L 38.497 272.411 47.074 272.411 C 54.556 272.411,55.679 272.485,55.873 272.991 M152.154 279.193 L 152.154 285.976 140.238 285.976 L 128.323 285.976 128.323 279.193 L 128.323 272.411 140.238 272.411 L 152.154 272.411 152.154 279.193 M398.900 291.476 L 398.900 309.074 377.269 309.074 L 355.637 309.074 355.637 303.941 L 355.637 298.808 350.360 298.808 C 345.986 298.808,345.047 298.713,344.870 298.253 C 344.715 297.848,344.526 279.149,344.628 274.335 C 344.636 273.973,350.314 273.877,371.769 273.877 L 398.900 273.877 398.900 291.476 M247.768 279.377 C 247.826 282.099,247.781 284.701,247.668 285.159 L 247.461 285.992 240.596 285.893 L 233.731 285.793 233.628 280.493 C 233.572 277.579,233.610 274.977,233.712 274.711 C 233.858 274.330,235.351 274.249,240.780 274.327 L 247.663 274.427 247.768 279.377 M29.612 300.000 L 29.514 308.891 15.215 308.891 L 0.917 308.891 0.818 300.000 L 0.720 291.109 15.215 291.109 L 29.711 291.109 29.612 300.000 M53.346 337.855 L 53.346 366.086 27.131 366.086 L 0.917 366.086 0.823 337.951 L 0.729 309.816 15.671 309.713 C 23.890 309.657,35.729 309.614,41.980 309.617 L 53.346 309.624 53.346 337.855 M92.759 337.858 L 92.759 366.276 73.419 366.181 L 54.079 366.086 53.984 338.222 C 53.932 322.896,53.968 310.151,54.064 309.899 C 54.201 309.541,58.429 309.441,73.499 309.441 L 92.759 309.441 92.759 337.858 M125.756 337.859 L 125.756 366.277 109.716 366.182 L 93.676 366.086 93.581 338.222 C 93.529 322.896,93.565 310.151,93.661 309.899 C 93.797 309.542,97.366 309.441,109.796 309.441 L 125.756 309.441 125.756 337.859 M164.986 337.858 L 164.986 366.276 145.830 366.181 L 126.673 366.086 126.578 338.222 C 126.526 322.896,126.562 310.151,126.658 309.899 C 126.795 309.541,130.986 309.441,145.910 309.441 L 164.986 309.441 164.986 337.858 M199.633 337.855 L 199.633 366.086 182.768 366.086 L 165.903 366.086 165.808 338.222 C 165.756 322.896,165.793 310.150,165.890 309.895 C 166.029 309.531,169.618 309.454,182.850 309.529 L 199.633 309.624 199.633 337.855 M270.761 338.038 L 270.761 366.086 252.704 366.181 L 234.647 366.276 234.647 338.038 L 234.647 309.801 252.704 309.896 L 270.761 309.991 270.761 338.038 M307.518 337.947 L 307.424 366.086 289.551 366.181 L 271.677 366.276 271.677 338.042 L 271.677 309.808 289.645 309.808 L 307.612 309.808 307.518 337.947 M343.538 338.038 L 343.538 366.269 325.979 366.269 C 310.305 366.269,308.396 366.207,308.197 365.690 C 307.892 364.895,307.913 310.357,308.219 310.052 C 308.353 309.918,316.355 309.808,326.001 309.808 L 343.538 309.808 343.538 338.038 M398.900 338.038 L 398.900 366.269 371.586 366.269 L 344.271 366.269 344.271 338.038 L 344.271 309.808 371.586 309.808 L 398.900 309.808 398.900 338.038 " stroke="none" fill="#150808" fill-rule="evenodd"></path><path id="path1" d="M201.283 28.044 L 201.283 54.995 169.569 54.995 L 137.855 54.995 137.855 39.047 L 137.855 23.098 134.555 23.098 L 131.256 23.098 131.256 39.047 L 131.256 54.995 93.501 54.995 L 55.746 54.995 55.645 48.488 L 55.545 41.980 51.054 41.877 L 46.563 41.774 46.563 52.601 L 46.563 63.428 51.696 63.428 L 56.829 63.428 56.829 179.841 L 56.829 296.254 47.204 296.156 L 37.580 296.059 37.472 293.584 L 37.363 291.109 33.890 291.109 L 30.418 291.109 30.516 299.817 L 30.614 308.524 115.580 308.617 L 200.545 308.709 200.639 337.214 L 200.733 365.720 217.138 365.815 L 233.543 365.910 233.637 337.401 L 233.731 308.891 294.317 308.798 L 354.904 308.705 354.904 304.317 L 354.904 299.928 349.496 299.826 L 344.088 299.725 343.864 289.093 C 343.741 283.245,343.617 225.458,343.589 160.678 L 343.538 42.896 338.588 42.896 L 333.639 42.896 333.639 48.946 L 333.639 54.995 283.229 54.995 L 232.819 54.995 232.725 28.139 L 232.631 1.283 216.957 1.188 L 201.283 1.092 201.283 28.044 M179.729 78.918 L 179.835 81.943 190.376 82.040 L 200.917 82.138 200.935 89.923 C 200.983 111.115,200.879 128.821,200.703 129.105 C 200.484 129.459,152.550 129.552,151.634 129.200 C 151.290 129.068,151.054 128.546,151.054 127.917 L 151.054 126.856 139.138 126.856 L 127.223 126.856 127.223 128.325 L 127.223 129.794 102.200 129.700 L 77.177 129.606 77.083 102.750 L 76.989 75.894 128.305 75.894 L 179.622 75.894 179.729 78.918 M306.783 76.266 L 320.807 76.260 320.807 102.834 L 320.807 129.408 313.016 129.507 L 305.225 129.606 305.127 140.330 L 305.030 151.054 312.735 151.054 L 320.440 151.054 320.440 163.520 L 320.440 175.985 312.741 175.985 L 305.041 175.985 305.041 186.611 L 305.041 197.236 313.199 197.335 L 321.357 197.434 321.450 242.071 L 321.543 286.709 288.361 286.709 L 255.179 286.709 255.179 267.644 L 255.179 248.579 251.879 248.579 L 248.579 248.579 248.579 267.644 L 248.579 286.709 240.697 286.709 L 232.814 286.709 232.818 280.385 C 232.821 276.907,232.716 253.107,232.587 227.498 C 232.457 201.888,232.475 157.389,232.627 128.610 L 232.904 76.286 236.434 76.181 C 238.375 76.124,251.842 76.121,266.361 76.174 C 280.880 76.227,299.070 76.269,306.783 76.266 M102.013 168.561 L 102.108 188.634 104.583 188.743 L 107.058 188.851 107.058 168.668 L 107.058 148.484 143.263 148.577 L 179.468 148.671 179.561 196.975 L 179.654 245.280 190.652 245.280 L 201.650 245.280 201.650 265.811 L 201.650 286.343 193.951 286.343 L 186.251 286.343 186.251 282.860 L 186.251 279.377 175.069 279.377 L 163.886 279.377 163.886 263.795 L 163.886 248.213 158.373 248.213 L 152.860 248.213 152.888 260.220 C 152.903 266.824,152.909 275.486,152.901 279.468 L 152.887 286.709 116.774 286.709 L 80.660 286.709 80.660 217.599 L 80.660 148.488 91.289 148.488 L 101.919 148.488 102.013 168.561 M200.917 186.098 C 200.917 216.024,200.823 223.678,200.458 223.556 C 200.006 223.405,199.541 150.112,199.986 148.946 C 200.818 146.763,200.917 150.709,200.917 186.098 " stroke="none" fill="#f3d3d3" fill-rule="evenodd"></path><path id="path2" d="M1.100 20.852 L 1.100 40.609 28.139 40.776 C 43.011 40.868,55.304 40.837,55.457 40.707 C 55.610 40.577,55.692 31.653,55.640 20.877 L 55.545 1.283 28.323 1.189 L 1.100 1.095 1.100 20.852 M56.706 1.344 C 56.572 1.479,56.462 13.358,56.462 27.742 L 56.462 53.896 73.694 53.896 L 90.926 53.896 90.926 27.498 L 90.926 1.100 73.938 1.100 C 64.595 1.100,56.841 1.210,56.706 1.344 M92.392 27.498 L 92.392 53.896 111.274 53.896 L 130.156 53.896 130.155 43.721 C 130.155 38.126,130.046 26.247,129.912 17.324 L 129.670 1.100 111.031 1.100 L 92.392 1.100 92.392 27.498 M131.256 11.606 L 131.256 22.112 136.263 21.872 C 139.017 21.740,146.029 21.632,151.845 21.632 L 162.420 21.632 162.420 11.366 L 162.420 1.100 146.838 1.100 L 131.256 1.100 131.256 11.606 M163.886 27.498 L 163.886 53.896 181.852 53.896 L 199.817 53.896 199.817 27.498 L 199.817 1.100 181.852 1.100 L 163.886 1.100 163.886 27.498 M233.914 27.498 L 233.914 53.896 252.612 53.896 L 271.311 53.896 271.311 27.498 L 271.311 1.100 252.612 1.100 L 233.914 1.100 233.914 27.498 M272.777 27.498 L 272.777 53.896 288.359 53.896 L 303.941 53.896 303.941 27.498 L 303.941 1.100 288.359 1.100 L 272.777 1.100 272.777 27.498 M305.408 27.498 L 305.408 53.896 318.973 53.896 L 332.539 53.896 332.539 47.846 L 332.539 41.797 338.038 41.797 L 343.538 41.797 343.538 21.448 L 343.538 1.100 324.473 1.100 L 305.408 1.100 305.408 27.498 M344.882 1.344 C 344.748 1.479,344.638 13.275,344.638 27.559 L 344.638 53.529 371.586 53.529 L 398.533 53.529 398.533 27.314 L 398.533 1.100 371.830 1.100 C 357.143 1.100,345.017 1.210,344.882 1.344 M138.955 30.431 L 138.955 37.764 150.687 37.764 L 162.420 37.764 162.420 30.431 L 162.420 23.098 150.687 23.098 L 138.955 23.098 138.955 30.431 M138.955 46.379 L 138.955 53.896 150.687 53.896 L 162.420 53.896 162.420 46.379 L 162.420 38.863 150.687 38.863 L 138.955 38.863 138.955 46.379 M1.183 48.301 L 1.283 54.812 23.281 54.812 L 45.280 54.812 45.280 48.396 L 45.280 41.980 23.181 41.885 L 1.083 41.791 1.183 48.301 M344.638 73.511 L 344.638 92.026 371.586 92.026 L 398.533 92.026 398.533 73.511 L 398.533 54.995 371.586 54.995 L 344.638 54.995 344.638 73.511 M1.100 73.511 L 1.100 90.926 28.414 90.926 L 55.729 90.926 55.729 77.727 L 55.729 64.528 50.596 64.528 L 45.463 64.528 45.463 60.312 L 45.463 56.095 23.281 56.095 L 1.100 56.095 1.100 73.511 M78.460 102.841 L 78.460 128.689 95.875 128.689 L 113.291 128.689 113.291 102.841 L 113.291 76.994 95.875 76.994 L 78.460 76.994 78.460 102.841 M114.757 94.592 L 114.757 112.191 146.654 112.191 L 178.552 112.191 178.552 94.592 L 178.552 76.994 171.958 76.994 L 165.365 76.994 165.267 86.984 L 165.170 96.975 154.720 96.975 L 144.271 96.975 144.174 86.984 L 144.076 76.994 129.417 76.994 L 114.757 76.994 114.757 94.592 M145.188 86.343 L 145.188 95.692 154.720 95.692 L 164.253 95.692 164.253 86.343 L 164.253 76.994 154.720 76.994 L 145.188 76.994 145.188 86.343 M233.914 102.841 L 233.914 128.323 252.246 128.323 L 270.577 128.323 270.577 102.841 L 270.577 77.360 259.225 77.360 L 247.873 77.360 247.768 80.935 L 247.663 84.510 243.721 84.614 L 239.780 84.718 239.780 81.039 L 239.780 77.360 236.847 77.360 L 233.914 77.360 233.914 102.841 M240.590 80.385 L 240.697 83.410 243.538 83.517 L 246.379 83.624 246.379 80.492 L 246.379 77.360 243.432 77.360 L 240.484 77.360 240.590 80.385 M271.677 102.841 L 271.677 128.323 281.577 128.323 L 291.476 128.323 291.476 102.841 L 291.476 77.360 281.577 77.360 L 271.677 77.360 271.677 102.841 M292.664 97.067 L 292.759 116.774 306.233 116.870 L 319.707 116.966 319.707 97.163 L 319.707 77.360 306.138 77.360 L 292.569 77.360 292.664 97.067 M179.735 90.284 L 179.835 97.342 189.826 97.439 L 199.817 97.537 199.817 90.382 L 199.817 83.226 189.726 83.226 L 179.636 83.226 179.735 90.284 M1.100 109.441 L 1.100 126.856 28.414 126.856 L 55.729 126.856 55.729 109.441 L 55.729 92.026 28.414 92.026 L 1.100 92.026 1.100 109.441 M344.726 109.716 L 344.821 125.940 371.677 126.034 L 398.533 126.128 398.533 109.810 L 398.533 93.492 371.582 93.492 L 344.630 93.492 344.726 109.716 M179.735 105.316 L 179.835 112.007 189.826 112.105 L 199.817 112.202 199.817 105.414 L 199.817 98.625 189.726 98.625 L 179.635 98.625 179.735 105.316 M114.757 120.807 L 114.757 128.689 120.440 128.689 L 126.123 128.689 126.123 120.807 L 126.123 112.924 120.440 112.924 L 114.757 112.924 114.757 120.807 M127.467 113.168 C 127.333 113.303,127.223 116.190,127.223 119.584 L 127.223 125.756 133.272 125.756 L 139.322 125.756 139.322 119.340 L 139.322 112.924 133.517 112.924 C 130.324 112.924,127.602 113.034,127.467 113.168 M140.422 119.340 L 140.422 125.756 145.738 125.756 L 151.054 125.756 151.054 119.340 L 151.054 112.924 145.738 112.924 L 140.422 112.924 140.422 119.340 M152.398 113.168 C 152.264 113.303,152.154 116.685,152.154 120.684 L 152.154 127.956 165.353 127.956 L 178.552 127.956 178.552 120.440 L 178.552 112.924 165.597 112.924 C 158.472 112.924,152.533 113.034,152.398 113.168 M180.018 120.440 L 180.018 127.956 189.918 127.956 L 199.817 127.956 199.817 120.440 L 199.817 112.924 189.918 112.924 L 180.018 112.924 180.018 120.440 M292.820 118.301 C 292.686 118.436,292.576 120.745,292.576 123.434 L 292.576 128.323 306.141 128.323 L 319.707 128.323 319.707 123.190 L 319.707 118.057 306.386 118.057 C 299.059 118.057,292.954 118.167,292.820 118.301 M344.882 127.101 C 344.748 127.235,344.638 135.732,344.638 145.982 L 344.638 164.620 371.586 164.620 L 398.533 164.620 398.533 145.738 L 398.533 126.856 371.830 126.856 C 357.143 126.856,345.017 126.966,344.882 127.101 M1.188 145.644 L 1.283 163.336 28.414 163.336 L 55.545 163.336 55.545 145.738 L 55.545 128.139 28.319 128.045 L 1.093 127.951 1.188 145.644 M233.914 163.336 L 233.914 197.250 258.753 197.240 L 283.593 197.229 285.483 194.032 C 286.523 192.273,288.732 188.524,290.391 185.701 C 292.051 182.878,294.129 179.391,295.009 177.952 L 296.609 175.336 296.609 163.441 L 296.609 151.546 295.552 149.925 C 294.971 149.034,292.466 144.922,289.987 140.788 C 287.507 136.654,284.925 132.406,284.249 131.347 L 283.021 129.423 258.467 129.423 L 233.914 129.423 233.914 163.336 M284.876 129.775 C 284.876 129.969,285.802 131.660,286.934 133.533 C 288.065 135.406,290.897 140.115,293.227 143.996 L 297.462 151.054 300.702 151.054 L 303.941 151.054 303.941 140.238 L 303.941 129.423 294.409 129.423 C 288.555 129.423,284.876 129.559,284.876 129.775 M81.760 157.654 L 81.760 165.720 91.292 165.720 L 100.825 165.720 100.825 157.654 L 100.825 149.588 91.292 149.588 L 81.760 149.588 81.760 157.654 M108.158 165.720 L 108.158 181.852 117.507 181.852 L 126.856 181.852 126.856 165.720 L 126.856 149.588 117.507 149.588 L 108.158 149.588 108.158 165.720 M127.956 174.702 L 127.956 199.817 145.921 199.817 L 163.886 199.817 163.886 174.702 L 163.886 149.588 145.921 149.588 L 127.956 149.588 127.956 174.702 M164.986 206.233 L 164.986 262.878 171.769 262.878 L 178.552 262.878 178.552 206.233 L 178.552 149.588 171.769 149.588 L 164.986 149.588 164.986 206.233 M297.958 152.393 C 297.821 152.530,297.709 157.647,297.709 163.764 L 297.709 174.885 308.713 174.885 L 319.717 174.885 319.620 163.611 L 319.523 152.337 308.866 152.240 C 303.004 152.187,298.096 152.256,297.958 152.393 M1.100 181.485 L 1.100 198.350 28.414 198.350 L 55.729 198.350 55.729 181.485 L 55.729 164.620 28.414 164.620 L 1.100 164.620 1.100 181.485 M344.882 165.964 C 344.748 166.098,344.638 173.358,344.638 182.096 L 344.638 197.984 371.586 197.984 L 398.533 197.984 398.533 181.852 L 398.533 165.720 371.830 165.720 C 357.143 165.720,345.017 165.830,344.882 165.964 M81.844 174.244 L 81.943 181.668 91.384 181.766 L 100.825 181.864 100.825 174.342 L 100.825 166.819 91.285 166.819 L 81.745 166.819 81.844 174.244 M292.531 184.277 C 289.833 188.837,287.015 193.622,286.269 194.909 L 284.912 197.250 294.427 197.250 L 303.941 197.250 303.941 186.618 L 303.941 175.985 300.688 175.985 L 297.435 175.985 292.531 184.277 M81.845 191.476 L 81.943 200.000 94.409 200.000 L 106.874 200.000 106.976 194.974 L 107.078 189.947 104.043 189.841 L 101.008 189.734 100.903 186.343 L 100.797 182.951 91.272 182.951 L 81.746 182.951 81.845 191.476 M108.158 191.384 L 108.158 199.817 117.507 199.817 L 126.856 199.817 126.856 191.384 L 126.856 182.951 117.507 182.951 L 108.158 182.951 108.158 191.384 M233.914 216.862 L 233.914 235.380 241.247 235.380 L 248.579 235.380 248.579 241.435 L 248.579 247.490 260.037 247.393 L 271.494 247.296 271.494 222.915 L 271.494 198.533 252.704 198.438 L 233.914 198.343 233.914 216.862 M272.777 222.915 L 272.777 247.479 296.609 247.479 L 320.440 247.479 320.440 222.915 L 320.440 198.350 296.609 198.350 L 272.777 198.350 272.777 222.915 M344.638 217.782 L 344.638 236.114 371.586 236.114 L 398.533 236.114 398.533 217.782 L 398.533 199.450 371.586 199.450 L 344.638 199.450 344.638 217.782 M1.188 217.507 L 1.283 235.197 28.414 235.197 L 55.545 235.197 55.641 217.507 L 55.736 199.817 28.414 199.817 L 1.093 199.817 1.188 217.507 M81.848 217.507 L 81.943 233.731 96.700 233.826 L 111.457 233.922 111.457 231.902 L 111.457 229.881 119.157 229.881 L 126.856 229.881 126.856 215.582 L 126.856 201.283 104.304 201.283 L 81.752 201.283 81.848 217.507 M127.956 212.773 C 127.956 219.092,128.065 228.002,128.198 232.571 L 128.440 240.880 133.514 240.880 L 138.588 240.880 138.588 243.813 L 138.588 246.746 151.237 246.746 L 163.886 246.746 163.886 224.015 L 163.886 201.283 145.921 201.283 L 127.956 201.283 127.956 212.773 M112.557 239.040 L 112.557 247.098 120.532 247.197 L 128.506 247.296 128.609 251.971 L 128.711 256.645 132.917 256.645 L 137.122 256.645 137.122 249.323 L 137.122 242.001 132.081 241.899 L 127.039 241.797 126.938 236.389 L 126.836 230.981 119.697 230.981 L 112.557 230.981 112.557 239.040 M81.760 241.063 L 81.760 247.113 96.609 247.113 L 111.457 247.113 111.457 241.063 L 111.457 235.014 96.609 235.014 L 81.760 235.014 81.760 241.063 M1.100 254.081 L 1.100 271.682 28.323 271.588 L 55.545 271.494 55.641 253.987 L 55.736 236.480 28.418 236.480 L 1.100 236.480 1.100 254.081 M233.914 248.396 L 233.914 260.312 240.513 260.312 L 247.113 260.312 247.113 248.396 L 247.113 236.480 240.513 236.480 L 233.914 236.480 233.914 248.396 M344.638 255.362 L 344.638 273.144 371.586 273.144 L 398.533 273.144 398.533 255.362 L 398.533 237.580 371.586 237.580 L 344.638 237.580 344.638 255.362 M179.652 254.812 L 179.652 262.878 190.101 262.878 L 200.550 262.878 200.550 254.812 L 200.550 246.746 190.101 246.746 L 179.652 246.746 179.652 254.812 M138.507 253.071 L 138.405 257.929 133.547 258.031 L 128.689 258.133 128.689 264.905 L 128.689 271.677 140.238 271.677 L 151.787 271.677 151.787 259.945 L 151.787 248.213 145.199 248.213 L 138.610 248.213 138.507 253.071 M81.760 267.094 L 81.760 285.610 94.042 285.610 L 106.324 285.610 106.324 267.094 L 106.324 248.579 94.042 248.579 L 81.760 248.579 81.760 267.094 M107.424 267.094 L 107.424 285.610 117.507 285.610 L 127.589 285.610 127.589 267.094 L 127.589 248.579 117.507 248.579 L 107.424 248.579 107.424 267.094 M256.279 267.102 L 256.279 285.624 263.886 285.525 L 271.494 285.426 271.589 267.003 L 271.684 248.579 263.981 248.579 L 256.279 248.579 256.279 267.102 M272.777 267.100 L 272.777 285.621 282.768 285.524 L 292.759 285.426 292.854 267.003 L 292.949 248.579 282.863 248.579 L 272.777 248.579 272.777 267.100 M294.042 267.094 L 294.042 285.610 307.241 285.610 L 320.440 285.610 320.440 267.094 L 320.440 248.579 307.241 248.579 L 294.042 248.579 294.042 267.094 M233.914 267.644 L 233.914 273.511 240.513 273.511 L 247.113 273.511 247.113 267.644 L 247.113 261.778 240.513 261.778 L 233.914 261.778 233.914 267.644 M164.986 271.127 L 164.986 278.277 176.169 278.277 L 187.351 278.277 187.351 281.760 L 187.351 285.243 193.951 285.243 L 200.550 285.243 200.550 274.610 L 200.550 263.978 182.768 263.978 L 164.986 263.978 164.986 271.127 M128.689 279.010 L 128.689 285.610 140.238 285.610 L 151.787 285.610 151.787 279.010 L 151.787 272.411 140.238 272.411 L 128.689 272.411 128.689 279.010 M1.100 281.393 L 1.100 290.009 19.248 290.009 L 37.397 290.009 37.397 281.393 L 37.397 272.777 19.248 272.777 L 1.100 272.777 1.100 281.393 M38.583 283.868 L 38.680 294.959 47.204 295.057 L 55.729 295.156 55.729 283.966 L 55.729 272.777 47.107 272.777 L 38.486 272.777 38.583 283.868 M344.908 274.519 C 344.831 274.670,344.840 280.110,344.927 286.608 L 345.086 298.423 350.453 298.524 L 355.820 298.625 355.922 303.666 L 356.024 308.708 377.279 308.708 L 398.533 308.708 398.533 291.476 L 398.533 274.244 371.791 274.244 C 357.082 274.244,344.985 274.368,344.908 274.519 M233.914 280.110 L 233.914 285.610 240.513 285.610 L 247.113 285.610 247.113 280.110 L 247.113 274.610 240.513 274.610 L 233.914 274.610 233.914 280.110 M1.100 299.908 L 1.100 308.708 15.215 308.708 L 29.331 308.708 29.331 299.908 L 29.331 291.109 15.215 291.109 L 1.100 291.109 1.100 299.908 M1.100 337.855 L 1.100 365.903 27.131 365.903 L 53.162 365.903 53.162 337.855 L 53.162 309.808 27.131 309.808 L 1.100 309.808 1.100 337.855 M54.262 337.858 L 54.262 365.909 73.419 365.814 L 92.576 365.720 92.670 337.764 L 92.764 309.808 73.513 309.808 L 54.262 309.808 54.262 337.858 M93.859 337.855 L 93.859 365.903 109.624 365.903 L 125.390 365.903 125.390 337.855 L 125.390 309.808 109.624 309.808 L 93.859 309.808 93.859 337.855 M126.856 337.855 L 126.856 365.903 145.921 365.903 L 164.986 365.903 164.986 337.855 L 164.986 309.808 145.921 309.808 L 126.856 309.808 126.856 337.855 M166.086 337.855 L 166.086 365.903 182.768 365.903 L 199.450 365.903 199.450 337.855 L 199.450 309.808 182.768 309.808 L 166.086 309.808 166.086 337.855 M234.647 337.855 L 234.647 365.910 252.521 365.815 L 270.394 365.720 270.394 337.855 L 270.394 309.991 252.521 309.896 L 234.647 309.801 234.647 337.855 M271.677 337.855 L 271.677 365.903 289.459 365.903 L 307.241 365.903 307.241 337.855 L 307.241 309.808 289.459 309.808 L 271.677 309.808 271.677 337.855 M308.510 310.266 C 308.413 310.518,308.377 323.098,308.429 338.222 L 308.524 365.720 326.031 365.815 L 343.538 365.910 343.538 337.859 L 343.538 309.808 326.111 309.808 C 312.508 309.808,308.646 309.908,308.510 310.266 M344.638 337.797 L 344.638 365.903 371.586 365.903 L 398.533 365.903 398.533 338.038 L 398.533 310.174 379.560 310.173 C 369.125 310.173,356.998 310.064,352.612 309.932 L 344.638 309.691 344.638 337.797 " stroke="none" fill="#db3434" fill-rule="evenodd"></path><path id="path3" d="M0.978 0.978 C 0.843 1.112,0.733 10.186,0.733 21.143 L 0.733 41.063 23.740 40.974 L 46.746 40.886 23.923 40.788 L 1.100 40.691 1.100 20.891 L 1.100 1.091 28.379 1.187 C 43.383 1.240,55.582 1.159,55.489 1.008 C 55.279 0.669,1.317 0.638,0.978 0.978 M56.704 1.005 C 56.609 1.158,64.270 1.239,73.729 1.184 L 90.926 1.086 90.926 27.487 L 90.926 53.888 73.602 53.989 L 56.279 54.090 73.694 54.084 L 91.109 54.079 91.109 27.498 L 91.109 0.917 73.993 0.821 C 64.579 0.769,56.799 0.851,56.704 1.005 M92.270 0.978 C 92.136 1.112,92.026 13.158,92.026 27.745 L 92.026 54.269 111.182 54.174 L 130.339 54.079 130.239 27.864 C 130.184 13.446,130.065 1.444,129.976 1.192 C 129.799 0.695,92.762 0.485,92.270 0.978 M131.056 1.193 C 130.958 1.450,130.924 6.277,130.981 11.921 L 131.084 22.181 131.170 11.641 L 131.256 1.100 146.838 1.100 L 162.420 1.100 162.420 11.361 L 162.420 21.622 150.046 21.723 L 137.672 21.825 150.235 21.912 L 162.798 21.998 162.700 11.457 L 162.603 0.917 146.919 0.821 C 134.482 0.745,131.199 0.822,131.056 1.193 M163.690 1.188 C 163.593 1.442,163.556 13.446,163.608 27.864 L 163.703 54.079 181.946 54.174 L 200.188 54.269 200.094 27.593 L 200.000 0.917 181.933 0.821 C 167.675 0.746,163.829 0.824,163.690 1.188 M216.955 1.006 L 232.809 1.108 232.903 27.960 L 232.997 54.812 283.226 54.812 L 333.456 54.812 333.556 48.865 L 333.657 42.917 338.506 42.800 L 343.355 42.682 338.405 42.698 L 333.456 42.713 333.355 48.671 L 333.254 54.629 283.220 54.629 L 233.185 54.629 233.091 27.773 L 232.997 0.917 217.049 0.911 L 201.100 0.905 216.955 1.006 M233.717 1.188 C 233.620 1.442,233.583 13.446,233.636 27.864 L 233.731 54.079 252.706 54.174 L 271.682 54.269 271.588 27.593 L 271.494 0.917 252.694 0.822 C 237.849 0.747,233.856 0.824,233.717 1.188 M272.659 0.974 C 272.522 1.110,272.411 13.156,272.411 27.742 L 272.411 54.262 288.362 54.262 L 304.313 54.262 304.219 27.589 L 304.125 0.917 288.516 0.821 C 279.931 0.768,272.796 0.837,272.659 0.974 M305.286 0.978 C 305.151 1.112,305.041 13.158,305.041 27.747 L 305.041 54.271 318.882 54.175 L 332.722 54.079 332.823 48.131 L 332.924 42.183 338.323 42.071 L 343.721 41.959 338.130 41.878 L 332.539 41.797 332.539 47.846 L 332.539 53.896 318.973 53.896 L 305.408 53.896 305.408 27.501 L 305.408 1.106 324.565 1.008 L 343.721 0.910 324.626 0.822 C 314.123 0.773,305.420 0.843,305.286 0.978 M344.682 1.230 C 344.379 1.596,344.292 8.755,344.360 27.722 L 344.455 53.712 371.680 53.806 L 398.905 53.900 398.811 27.408 L 398.717 0.917 371.908 0.823 C 349.598 0.744,345.028 0.813,344.682 1.230 M129.912 17.324 C 130.046 26.247,130.155 38.126,130.155 43.721 L 130.156 53.896 111.274 53.896 L 92.392 53.896 92.392 27.498 L 92.392 1.100 111.031 1.100 L 129.670 1.100 129.912 17.324 M199.817 27.498 L 199.817 53.896 181.852 53.896 L 163.886 53.896 163.886 27.498 L 163.886 1.100 181.852 1.100 L 199.817 1.100 199.817 27.498 M271.311 27.498 L 271.311 53.896 252.612 53.896 L 233.914 53.896 233.914 27.498 L 233.914 1.100 252.612 1.100 L 271.311 1.100 271.311 27.498 M303.941 27.498 L 303.941 53.896 288.359 53.896 L 272.777 53.896 272.777 27.498 L 272.777 1.100 288.359 1.100 L 303.941 1.100 303.941 27.498 M398.533 27.314 L 398.533 53.529 371.586 53.529 L 344.638 53.529 344.638 27.559 C 344.638 13.275,344.748 1.479,344.882 1.344 C 345.017 1.210,357.143 1.100,371.830 1.100 L 398.533 1.100 398.533 27.314 M138.752 23.201 C 138.653 23.459,138.621 26.882,138.680 30.808 L 138.789 37.947 138.872 30.522 L 138.955 23.098 150.680 23.098 L 162.405 23.098 162.512 30.522 L 162.619 37.947 162.703 30.339 L 162.786 22.731 150.859 22.731 C 141.509 22.731,138.893 22.833,138.752 23.201 M138.033 38.863 L 138.038 54.812 169.569 54.815 L 201.100 54.818 169.665 54.722 L 138.230 54.625 138.128 38.770 L 138.027 22.915 138.033 38.863 M138.752 38.965 C 138.653 39.223,138.617 42.729,138.672 46.756 L 138.772 54.079 150.779 54.175 L 162.786 54.272 162.786 46.384 L 162.786 38.497 150.859 38.497 C 141.515 38.497,138.893 38.598,138.752 38.965 M162.420 46.379 L 162.420 53.896 150.687 53.896 L 138.955 53.896 138.955 46.379 L 138.955 38.863 150.687 38.863 L 162.420 38.863 162.420 46.379 M0.804 48.304 C 0.765 51.984,0.857 54.996,1.008 54.996 C 1.159 54.996,1.240 52.975,1.188 50.505 C 1.013 42.320,0.875 41.529,0.804 48.304 M45.280 48.396 C 45.280 52.026,45.403 54.995,45.555 54.995 C 45.706 54.995,45.830 52.026,45.830 48.396 C 45.830 44.766,45.706 41.797,45.555 41.797 C 45.403 41.797,45.280 44.766,45.280 48.396 M46.349 48.579 C 46.349 52.411,46.404 53.928,46.470 51.952 C 46.536 49.975,46.535 46.840,46.469 44.986 C 46.403 43.131,46.349 44.748,46.349 48.579 M74.547 54.904 C 84.998 54.958,101.991 54.958,112.310 54.904 C 122.629 54.850,114.079 54.805,93.309 54.805 C 72.539 54.805,64.096 54.850,74.547 54.904 M344.439 55.087 C 344.343 55.339,344.307 63.795,344.359 73.877 L 344.455 92.209 371.677 92.303 L 398.900 92.397 398.900 73.513 L 398.900 54.629 371.758 54.629 C 350.382 54.629,344.578 54.726,344.439 55.087 M398.533 73.511 L 398.533 92.026 371.586 92.026 L 344.638 92.026 344.638 73.511 L 344.638 54.995 371.586 54.995 L 398.533 54.995 398.533 73.511 M0.902 56.184 C 0.805 56.438,0.769 64.400,0.821 73.877 L 0.917 91.109 28.323 91.113 L 55.729 91.116 28.414 91.019 L 1.100 90.921 1.100 73.508 L 1.100 56.095 23.281 56.095 L 45.463 56.095 45.463 60.312 L 45.463 64.528 50.591 64.528 L 55.719 64.528 55.823 77.635 L 55.926 90.742 55.919 77.544 L 55.912 64.345 50.883 64.243 L 45.853 64.141 45.750 60.026 L 45.646 55.912 23.363 55.818 C 5.731 55.743,1.042 55.819,0.902 56.184 M46.359 59.578 L 46.379 63.611 51.421 63.627 L 56.463 63.644 51.525 63.526 L 46.587 63.408 46.463 59.476 L 46.339 55.545 46.359 59.578 M77.360 76.169 C 77.360 76.419,90.978 76.414,107.424 76.159 C 110.953 76.104,105.632 76.022,95.600 75.976 C 85.568 75.931,77.360 76.017,77.360 76.169 M121.815 76.168 C 125.999 76.227,132.846 76.227,137.030 76.168 C 141.214 76.109,137.791 76.061,129.423 76.061 C 121.054 76.061,117.631 76.109,121.815 76.168 M172.212 76.164 L 179.254 76.276 179.385 78.926 L 179.515 81.577 179.491 78.827 L 179.468 76.077 172.319 76.064 L 165.170 76.052 172.212 76.164 M78.183 102.750 L 78.277 128.873 95.875 128.873 L 113.474 128.873 113.568 102.750 L 113.662 76.627 95.875 76.627 L 78.089 76.627 78.183 102.750 M114.479 94.500 L 114.567 112.374 114.665 94.684 L 114.764 76.994 129.420 76.994 L 144.076 76.994 144.174 86.984 L 144.271 96.975 154.720 96.975 L 165.170 96.975 165.267 86.984 L 165.365 76.994 171.953 76.994 L 178.541 76.994 178.644 87.534 L 178.747 98.075 178.833 87.343 L 178.918 76.611 172.044 76.711 L 165.170 76.810 165.072 86.801 L 164.974 96.792 154.715 96.792 L 144.455 96.792 144.455 86.709 L 144.455 76.627 129.423 76.627 L 114.390 76.627 114.479 94.500 M154.629 76.899 L 164.253 77.006 164.253 86.343 L 164.253 95.680 154.629 95.787 L 145.005 95.894 154.720 95.885 L 164.436 95.875 164.436 86.343 L 164.436 76.810 154.720 76.801 L 145.005 76.791 154.629 76.899 M232.993 137.122 C 232.993 170.495,233.036 184.148,233.089 167.461 C 233.142 150.775,233.142 123.469,233.089 106.783 C 233.036 90.096,232.993 103.749,232.993 137.122 M113.291 102.841 L 113.291 128.689 95.875 128.689 L 78.460 128.689 78.460 102.841 L 78.460 76.994 95.875 76.994 L 113.291 76.994 113.291 102.841 M233.716 77.452 C 233.619 77.704,233.583 89.294,233.636 103.208 L 233.731 128.506 251.971 128.511 L 270.211 128.516 252.062 128.416 L 233.914 128.316 233.914 102.853 L 233.914 77.390 236.939 77.266 L 239.963 77.143 236.927 77.068 C 234.778 77.015,233.840 77.128,233.716 77.452 M243.355 77.266 L 246.379 77.390 246.379 80.519 L 246.379 83.649 243.446 83.529 C 241.832 83.464,240.512 83.540,240.512 83.700 C 240.513 83.859,241.874 83.941,243.538 83.883 L 246.563 83.776 246.668 80.385 L 246.774 76.994 243.552 77.068 L 240.330 77.143 243.355 77.266 M247.479 80.642 L 247.479 84.301 243.721 84.424 L 239.963 84.547 243.813 84.528 L 247.663 84.510 247.768 80.935 L 247.873 77.360 259.223 77.360 L 270.572 77.360 270.670 102.750 L 270.768 128.139 270.765 102.658 L 270.761 77.177 259.120 77.080 L 247.479 76.983 247.479 80.642 M271.479 77.452 C 271.383 77.704,271.347 89.294,271.399 103.208 L 271.494 128.506 281.577 128.506 L 291.659 128.506 291.753 102.750 L 291.847 76.994 281.751 76.994 C 274.011 76.994,271.613 77.101,271.479 77.452 M306.049 77.266 L 319.707 77.369 319.707 97.172 L 319.707 116.974 306.141 116.874 C 298.680 116.819,292.575 116.899,292.575 117.053 C 292.576 117.207,298.721 117.289,306.233 117.236 L 319.890 117.140 319.890 97.159 L 319.890 77.177 306.141 77.170 L 292.392 77.163 306.049 77.266 M291.476 102.841 L 291.476 128.323 281.577 128.323 L 271.677 128.323 271.677 102.841 L 271.677 77.360 281.577 77.360 L 291.476 77.360 291.476 102.841 M189.917 83.132 L 199.817 83.238 199.817 90.393 L 199.817 97.548 189.734 97.445 C 184.188 97.388,179.651 97.466,179.651 97.617 C 179.652 97.768,184.275 97.892,189.925 97.892 L 200.199 97.892 200.099 90.467 L 200.000 83.043 190.009 83.034 L 180.018 83.025 189.917 83.132 M0.902 92.115 C 0.805 92.368,0.770 100.330,0.825 109.808 L 0.924 127.039 1.012 109.533 L 1.100 92.026 28.411 92.026 L 55.722 92.026 55.822 109.533 L 55.923 127.039 55.917 109.441 L 55.912 91.842 28.495 91.748 C 6.757 91.674,1.042 91.750,0.902 92.115 M344.516 93.370 C 344.177 93.709,344.207 125.673,344.546 125.883 C 344.698 125.977,344.777 118.727,344.722 109.773 L 344.623 93.492 371.574 93.492 L 398.526 93.492 398.625 109.899 L 398.725 126.306 398.812 109.716 L 398.900 93.126 371.830 93.126 C 356.942 93.126,344.650 93.236,344.516 93.370 M178.705 105.408 C 178.705 109.239,178.759 110.757,178.825 108.780 C 178.891 106.804,178.891 103.669,178.825 101.814 C 178.758 99.959,178.704 101.577,178.705 105.408 M199.970 105.408 C 199.970 109.239,200.024 110.757,200.090 108.780 C 200.156 106.804,200.156 103.669,200.090 101.814 C 200.023 99.959,199.969 101.577,199.970 105.408 M114.563 120.807 L 114.574 128.873 120.440 128.873 L 126.306 128.873 126.317 120.990 L 126.328 113.107 126.218 120.898 L 126.109 128.689 120.440 128.689 L 114.771 128.689 114.661 120.715 L 114.551 112.741 114.563 120.807 M139.404 119.240 L 139.322 125.738 133.181 125.848 L 127.039 125.958 133.192 126.041 C 137.930 126.104,139.386 126.014,139.526 125.651 C 139.625 125.392,139.657 122.381,139.596 118.960 L 139.486 112.741 139.404 119.240 M151.872 120.532 L 151.971 128.139 165.445 128.235 L 178.918 128.332 178.835 120.536 L 178.751 112.741 178.644 120.348 L 178.537 127.956 165.331 127.956 L 152.125 127.956 152.231 120.440 C 152.290 116.306,152.210 112.923,152.055 112.924 C 151.900 112.924,151.817 116.347,151.872 120.532 M179.735 120.532 L 179.652 128.323 189.918 128.323 L 200.183 128.323 200.100 120.532 L 200.016 112.741 199.909 120.348 L 199.802 127.956 189.918 127.956 L 180.033 127.956 179.926 120.348 L 179.819 112.741 179.735 120.532 M319.786 123.277 L 319.707 128.314 306.233 128.414 L 292.759 128.515 306.244 128.602 C 317.049 128.672,319.766 128.594,319.913 128.212 C 320.014 127.949,320.045 125.598,319.981 122.987 L 319.866 118.240 319.786 123.277 M143.097 126.029 C 144.669 126.098,147.143 126.097,148.596 126.028 C 150.049 125.959,148.763 125.902,145.738 125.903 C 142.713 125.903,141.524 125.960,143.097 126.029 M130.247 126.762 C 132.012 126.830,134.899 126.830,136.664 126.762 C 138.428 126.695,136.984 126.640,133.456 126.640 C 129.927 126.640,128.483 126.695,130.247 126.762 M142.071 126.735 C 146.492 127.001,151.339 127.017,151.182 126.764 C 151.088 126.613,148.587 126.520,145.625 126.557 C 142.662 126.595,141.063 126.675,142.071 126.735 M344.439 127.314 C 344.343 127.566,344.307 136.104,344.359 146.288 L 344.455 164.803 344.638 145.829 C 344.739 135.394,344.775 126.856,344.718 126.856 C 344.661 126.856,344.536 127.062,344.439 127.314 M398.704 145.738 C 398.704 156.224,398.751 160.460,398.808 155.153 C 398.865 149.846,398.865 141.266,398.808 136.088 C 398.751 130.910,398.704 135.252,398.704 145.738 M0.978 127.834 C 0.638 128.173,0.669 163.520,1.008 163.520 C 1.159 163.520,1.239 155.517,1.185 145.736 L 1.086 127.951 28.316 128.045 L 55.545 128.139 55.545 145.795 C 55.545 155.505,55.669 163.373,55.820 163.280 C 56.146 163.078,56.197 129.014,55.873 128.169 C 55.641 127.564,1.578 127.234,0.978 127.834 M158.319 128.964 C 162.214 129.023,168.484 129.023,172.251 128.964 C 176.019 128.904,172.832 128.855,165.170 128.856 C 157.507 128.856,154.424 128.904,158.319 128.964 M184.899 128.964 C 187.885 129.025,192.670 129.025,195.531 128.963 C 198.392 128.901,195.949 128.851,190.101 128.851 C 184.253 128.851,181.912 128.902,184.899 128.964 M258.392 129.331 L 283.053 129.428 284.179 131.258 C 284.799 132.265,285.388 133.089,285.488 133.089 C 285.713 133.089,284.219 130.570,283.476 129.698 C 282.964 129.097,281.369 129.062,258.330 129.145 L 233.731 129.234 258.392 129.331 M284.377 129.341 C 284.192 129.640,285.518 131.989,285.871 131.989 C 285.975 131.989,285.794 131.582,285.468 131.085 C 284.381 129.426,284.400 129.423,294.403 129.423 L 303.930 129.423 304.036 140.330 L 304.142 151.237 304.133 140.238 L 304.125 129.239 294.342 129.142 C 288.962 129.088,284.478 129.178,284.377 129.341 M308.799 129.330 C 310.967 129.394,314.514 129.394,316.682 129.330 C 318.850 129.265,317.076 129.212,312.741 129.212 C 308.405 129.212,306.632 129.265,308.799 129.330 M89.918 129.697 C 96.723 129.753,107.860 129.753,114.665 129.697 C 121.471 129.641,115.903 129.596,102.291 129.596 C 88.680 129.596,83.112 129.641,89.918 129.697 M233.723 163.336 C 233.723 181.888,233.768 189.531,233.822 180.321 C 233.877 171.111,233.877 155.932,233.822 146.590 C 233.768 137.249,233.723 144.785,233.723 163.336 M288.936 137.305 C 289.389 138.112,289.917 138.937,290.110 139.138 C 290.659 139.714,289.403 137.391,288.722 136.572 C 288.387 136.169,288.483 136.499,288.936 137.305 M289.670 140.238 C 290.123 141.045,290.651 141.870,290.843 142.071 C 291.392 142.647,290.136 140.324,289.456 139.505 C 289.120 139.102,289.217 139.432,289.670 140.238 M293.384 144.669 C 293.847 145.493,294.521 146.565,294.883 147.052 C 295.245 147.539,295.162 147.264,294.700 146.440 C 294.237 145.616,293.563 144.544,293.201 144.057 C 292.839 143.570,292.922 143.845,293.384 144.669 M294.069 147.663 C 294.520 148.419,295.127 149.285,295.419 149.588 C 295.710 149.890,295.423 149.271,294.781 148.213 C 294.138 147.154,293.531 146.288,293.431 146.288 C 293.331 146.288,293.618 146.907,294.069 147.663 M107.227 165.536 C 107.227 174.812,107.274 178.554,107.332 173.852 C 107.391 169.150,107.390 161.560,107.332 156.987 C 107.274 152.413,107.227 156.260,107.227 165.536 M81.550 157.654 C 81.550 162.191,81.603 164.047,81.667 161.778 C 81.731 159.510,81.731 155.797,81.667 153.529 C 81.603 151.260,81.550 153.116,81.550 157.654 M100.982 157.654 C 100.982 162.191,101.034 164.047,101.099 161.778 C 101.163 159.510,101.163 155.797,101.099 153.529 C 101.034 151.260,100.982 153.116,100.982 157.654 M107.968 165.720 L 107.974 182.035 117.507 182.035 L 127.039 182.035 127.045 165.811 L 127.051 149.587 126.950 165.719 L 126.848 181.852 117.507 181.852 L 108.165 181.852 108.064 165.628 L 107.963 149.404 107.968 165.720 M164.793 174.702 C 164.793 188.616,164.839 194.255,164.894 187.233 C 164.950 180.210,164.950 168.826,164.894 161.935 C 164.839 155.043,164.793 160.788,164.793 174.702 M308.799 151.328 C 310.967 151.392,314.514 151.392,316.682 151.328 C 318.850 151.263,317.076 151.210,312.741 151.210 C 308.405 151.210,306.632 151.263,308.799 151.328 M296.772 163.520 C 296.772 170.073,296.822 172.754,296.883 169.478 C 296.944 166.201,296.944 160.839,296.883 157.562 C 296.822 154.285,296.772 156.966,296.772 163.520 M297.709 152.062 C 297.709 152.214,302.658 152.337,308.708 152.337 C 314.757 152.337,319.707 152.214,319.707 152.062 C 319.707 151.911,314.757 151.787,308.708 151.787 C 302.658 151.787,297.709 151.911,297.709 152.062 M0.821 181.393 L 0.917 198.533 28.414 198.533 L 55.912 198.533 55.918 181.668 L 55.923 164.803 55.822 181.577 L 55.721 198.350 28.411 198.350 L 1.100 198.350 1.100 181.487 L 1.100 164.624 28.506 164.528 L 55.912 164.432 28.319 164.342 L 0.726 164.253 0.821 181.393 M344.451 166.178 C 344.341 166.632,344.297 174.015,344.353 182.585 L 344.455 198.167 371.677 198.261 L 398.900 198.355 398.900 181.854 L 398.900 165.353 371.776 165.353 L 344.652 165.353 344.451 166.178 M398.533 181.852 L 398.533 197.984 371.586 197.984 L 344.638 197.984 344.638 182.096 C 344.638 173.358,344.748 166.098,344.882 165.964 C 345.017 165.830,357.143 165.720,371.830 165.720 L 398.533 165.720 398.533 181.852 M81.559 166.915 C 81.459 167.176,81.422 170.685,81.477 174.712 L 81.577 182.035 91.292 182.035 L 101.008 182.035 101.008 174.335 L 101.008 166.636 91.375 166.538 C 83.758 166.461,81.703 166.540,81.559 166.915 M100.825 174.342 L 100.825 181.864 91.384 181.766 L 81.943 181.668 81.844 174.244 L 81.745 166.819 91.285 166.819 L 100.825 166.819 100.825 174.342 M297.214 175.894 C 297.120 176.045,298.595 176.116,300.492 176.052 L 303.941 175.935 303.941 186.593 L 303.941 197.250 294.421 197.250 L 284.901 197.250 285.658 195.967 C 286.075 195.261,286.333 194.684,286.232 194.684 C 286.046 194.684,284.510 197.156,284.510 197.455 C 284.510 197.544,288.964 197.617,294.409 197.617 L 304.308 197.617 304.308 186.618 L 304.308 175.619 300.847 175.619 C 298.943 175.619,297.308 175.742,297.214 175.894 M294.560 178.643 C 292.859 181.492,292.862 181.485,293.069 181.485 C 293.163 181.485,293.695 180.701,294.251 179.743 C 294.808 178.786,295.503 177.631,295.795 177.177 C 296.087 176.723,296.237 176.352,296.127 176.352 C 296.018 176.352,295.313 177.383,294.560 178.643 M107.132 185.610 L 107.058 188.818 104.507 188.818 L 101.956 188.818 101.824 186.067 L 101.692 183.316 101.717 186.158 L 101.742 189.001 104.405 189.109 C 107.559 189.236,107.505 189.306,107.331 185.302 L 107.205 182.401 107.132 185.610 M81.475 191.079 C 81.430 195.650,81.493 199.651,81.616 199.970 C 81.861 200.610,105.989 200.868,106.977 200.241 C 107.329 200.017,107.420 198.677,107.343 194.839 L 107.241 189.734 104.230 189.628 L 101.219 189.522 101.090 186.145 L 100.962 182.768 100.985 186.251 L 101.008 189.734 104.043 189.841 L 107.078 189.947 106.976 194.974 L 106.874 200.000 94.409 200.000 L 81.943 200.000 81.750 191.384 L 81.556 182.768 81.475 191.079 M107.919 185.885 C 107.919 187.599,107.982 188.300,108.059 187.443 C 108.137 186.586,108.137 185.183,108.059 184.326 C 107.982 183.469,107.919 184.170,107.919 185.885 M126.940 191.286 L 126.856 199.804 117.415 199.909 L 107.974 200.013 117.427 200.098 C 124.803 200.165,126.918 200.081,127.058 199.717 C 127.157 199.460,127.189 195.542,127.131 191.009 L 127.025 182.768 126.940 191.286 M290.266 185.793 C 290.183 185.944,289.651 186.893,289.085 187.901 C 288.518 188.909,288.226 189.569,288.434 189.368 C 288.964 188.853,290.855 185.518,290.616 185.518 C 290.508 185.518,290.350 185.642,290.266 185.793 M285.199 194.409 C 284.959 194.863,284.523 195.646,284.231 196.150 C 283.721 197.030,283.724 197.037,284.316 196.334 C 285.046 195.465,286.072 193.584,285.815 193.584 C 285.716 193.584,285.439 193.955,285.199 194.409 M246.315 197.525 C 253.236 197.581,264.455 197.581,271.246 197.525 C 278.037 197.469,272.374 197.423,258.662 197.424 C 244.950 197.424,239.393 197.469,246.315 197.525 M232.984 216.865 C 232.984 227.149,233.031 231.409,233.089 226.332 C 233.146 221.254,233.146 212.840,233.089 207.633 C 233.031 202.427,232.984 206.581,232.984 216.865 M233.717 216.865 C 233.717 227.149,233.764 231.409,233.822 226.332 C 233.879 221.254,233.879 212.840,233.822 207.633 C 233.765 202.427,233.718 206.581,233.717 216.865 M272.590 223.098 L 272.594 247.663 282.952 247.671 L 293.309 247.680 283.046 247.574 L 272.782 247.468 272.684 223.001 L 272.586 198.533 272.590 223.098 M320.613 222.915 C 320.613 236.324,320.659 241.810,320.715 235.105 C 320.771 228.401,320.771 217.429,320.715 210.724 C 320.659 204.019,320.613 209.505,320.613 222.915 M344.439 199.542 C 344.343 199.794,344.307 208.167,344.359 218.148 L 344.455 236.297 371.586 236.297 L 398.717 236.297 398.812 217.690 L 398.907 199.083 371.761 199.083 C 350.382 199.083,344.578 199.181,344.439 199.542 M0.733 217.413 C 0.733 227.295,0.857 235.380,1.008 235.380 C 1.159 235.381,1.239 227.379,1.185 217.599 L 1.086 199.817 28.414 199.817 L 55.742 199.817 55.644 217.580 C 55.590 227.350,55.671 235.219,55.824 235.065 C 55.977 234.912,56.060 226.877,56.007 217.210 L 55.912 199.633 28.323 199.539 L 0.733 199.445 0.733 217.413 M398.533 217.782 L 398.533 236.114 371.586 236.114 L 344.638 236.114 344.638 217.782 L 344.638 199.450 371.586 199.450 L 398.533 199.450 398.533 217.782 M136.847 200.091 C 141.838 200.149,150.005 200.149,154.995 200.091 C 159.986 200.034,155.903 199.987,145.921 199.987 C 135.940 199.987,131.856 200.034,136.847 200.091 M104.487 201.190 L 126.848 201.289 126.950 215.585 L 127.052 229.881 127.046 215.490 L 127.039 201.100 104.583 201.096 L 82.126 201.091 104.487 201.190 M136.847 201.191 C 141.838 201.249,150.005 201.249,154.995 201.191 C 159.986 201.134,155.903 201.086,145.921 201.086 C 135.940 201.086,131.856 201.134,136.847 201.191 M81.475 217.302 C 81.430 226.213,81.517 233.581,81.668 233.674 C 81.918 233.829,81.913 221.250,81.657 206.783 C 81.602 203.657,81.520 208.391,81.475 217.302 M164.800 232.264 L 164.803 263.061 171.678 263.074 L 178.552 263.086 171.771 262.974 L 164.990 262.862 164.894 232.164 L 164.797 201.467 164.800 232.264 M111.571 231.897 C 111.573 233.107,111.641 233.558,111.723 232.899 C 111.805 232.240,111.803 231.250,111.719 230.699 C 111.636 230.148,111.569 230.687,111.571 231.897 M128.104 235.380 C 128.104 238.506,128.160 239.785,128.229 238.222 C 128.297 236.659,128.297 234.102,128.229 232.539 C 128.160 230.976,128.104 232.255,128.104 235.380 M119.605 230.889 L 126.837 230.996 126.938 236.396 L 127.039 241.797 132.081 241.899 L 137.122 242.001 137.122 249.323 L 137.122 256.645 132.917 256.645 L 128.711 256.645 128.609 251.971 L 128.506 247.296 120.623 247.285 L 112.741 247.275 120.532 247.384 L 128.323 247.494 128.323 252.253 L 128.323 257.012 132.906 257.012 L 137.489 257.012 137.489 249.313 L 137.489 241.613 132.356 241.613 L 127.223 241.613 127.223 236.114 L 127.223 230.614 119.798 230.698 L 112.374 230.781 119.605 230.889 M96.700 234.920 L 111.457 235.022 111.457 241.067 L 111.457 247.113 96.617 247.113 L 81.778 247.113 81.663 241.063 L 81.549 235.013 81.563 241.155 L 81.577 247.296 96.709 247.392 L 111.841 247.488 111.741 241.159 L 111.641 234.830 96.792 234.824 L 81.943 234.818 96.700 234.920 M248.295 241.522 L 248.213 247.846 259.945 247.846 C 266.398 247.846,271.677 247.722,271.678 247.571 C 271.678 247.420,266.485 247.342,260.137 247.398 L 248.597 247.500 248.487 241.348 L 248.377 235.197 248.295 241.522 M232.993 261.045 L 232.997 286.526 240.422 286.538 L 247.847 286.549 240.516 286.439 L 233.186 286.328 233.088 260.946 L 232.990 235.564 232.993 261.045 M0.821 253.985 L 0.909 271.861 1.008 254.170 L 1.107 236.480 28.425 236.480 L 55.743 236.480 55.644 254.061 C 55.590 263.730,55.671 271.516,55.824 271.362 C 55.977 271.209,56.060 263.257,56.007 253.690 L 55.912 236.297 28.323 236.203 L 0.733 236.109 0.821 253.985 M233.714 236.575 C 233.616 236.829,233.580 242.315,233.634 248.766 L 233.731 260.495 240.486 260.595 C 244.324 260.652,247.390 260.548,247.584 260.353 C 247.793 260.145,247.820 255.353,247.655 248.063 L 247.384 236.114 240.637 236.114 C 235.554 236.114,233.847 236.227,233.714 236.575 M247.113 248.396 L 247.113 260.312 240.513 260.312 L 233.914 260.312 233.914 248.396 L 233.914 236.480 240.513 236.480 L 247.113 236.480 247.113 248.396 M344.439 237.672 C 344.343 237.924,344.308 246.049,344.363 255.729 L 344.462 273.327 344.550 255.454 L 344.638 237.580 371.582 237.580 L 398.526 237.580 398.625 255.454 L 398.724 273.327 398.812 255.270 L 398.900 237.214 371.758 237.214 C 350.382 237.214,344.578 237.311,344.439 237.672 M138.296 243.905 L 138.222 247.113 151.146 247.026 L 164.070 246.939 151.344 246.838 L 138.618 246.737 138.495 243.717 L 138.371 240.697 138.296 243.905 M201.442 254.445 C 201.442 259.386,201.494 261.407,201.557 258.937 C 201.621 256.467,201.621 252.424,201.557 249.954 C 201.494 247.484,201.442 249.505,201.442 254.445 M179.370 254.720 L 179.468 263.061 190.101 263.061 L 200.733 263.061 200.832 254.720 L 200.930 246.379 190.101 246.379 L 179.271 246.379 179.370 254.720 M200.550 254.812 L 200.550 262.878 190.101 262.878 L 179.652 262.878 179.652 254.812 L 179.652 246.746 190.101 246.746 L 200.550 246.746 200.550 254.812 M300.391 247.754 C 304.185 247.814,310.289 247.813,313.956 247.754 C 317.623 247.694,314.519 247.645,307.058 247.645 C 299.597 247.645,296.596 247.694,300.391 247.754 M138.222 252.788 L 138.222 257.745 133.272 257.745 L 128.323 257.745 128.406 264.803 L 128.489 271.861 128.597 264.997 L 128.705 258.133 133.555 258.031 L 138.405 257.929 138.507 253.071 L 138.610 248.213 145.193 248.213 L 151.777 248.213 151.882 259.853 L 151.986 271.494 151.978 259.762 L 151.971 248.029 145.096 247.930 L 138.222 247.830 138.222 252.788 M81.561 248.671 C 81.465 248.923,81.429 257.379,81.481 267.461 L 81.577 285.793 94.134 285.889 L 106.691 285.986 106.691 267.099 L 106.691 248.213 94.214 248.213 C 84.570 248.213,81.697 248.317,81.561 248.671 M112.488 248.487 C 115.374 248.549,119.993 248.549,122.754 248.487 C 125.514 248.424,123.153 248.374,117.507 248.374 C 111.861 248.374,109.602 248.425,112.488 248.487 M152.691 267.461 C 152.691 278.148,152.738 282.468,152.795 277.059 C 152.853 271.651,152.853 262.907,152.795 257.628 C 152.738 252.349,152.691 256.774,152.691 267.461 M164.041 255.545 C 164.041 259.679,164.094 261.370,164.160 259.303 C 164.225 257.236,164.225 253.854,164.160 251.787 C 164.094 249.720,164.041 251.412,164.041 255.545 M106.324 267.094 L 106.324 285.610 94.042 285.610 L 81.760 285.610 81.760 267.094 L 81.760 248.579 94.042 248.579 L 106.324 248.579 106.324 267.094 M255.357 267.461 L 255.362 286.526 263.520 286.537 L 271.678 286.548 263.615 286.438 L 255.552 286.329 255.452 267.362 L 255.352 248.396 255.357 267.461 M256.090 267.278 L 256.095 285.793 263.886 285.892 C 268.171 285.946,271.678 285.864,271.678 285.708 C 271.678 285.553,268.215 285.474,263.982 285.532 L 256.285 285.638 256.185 267.200 L 256.085 248.763 256.090 267.278 M272.589 267.278 L 272.594 285.793 282.768 285.890 C 288.364 285.944,292.942 285.861,292.942 285.707 C 292.943 285.553,288.407 285.473,282.863 285.529 L 272.784 285.632 272.684 267.197 L 272.584 248.763 272.589 267.278 M293.854 267.278 L 293.859 285.793 307.058 285.800 L 320.257 285.807 307.153 285.703 L 294.049 285.600 293.949 267.181 L 293.849 248.763 293.854 267.278 M320.610 266.911 C 320.610 277.094,320.657 281.260,320.715 276.169 C 320.772 271.077,320.772 262.745,320.715 257.654 C 320.657 252.562,320.610 256.728,320.610 266.911 M233.712 261.877 C 233.610 262.142,233.578 264.909,233.639 268.026 L 233.751 273.694 233.832 267.736 L 233.914 261.778 240.513 261.778 L 247.113 261.778 247.113 267.718 C 247.113 271.781,247.232 273.538,247.489 273.281 C 247.724 273.046,247.827 270.768,247.764 267.250 L 247.663 261.595 240.780 261.495 C 235.361 261.417,233.858 261.498,233.712 261.877 M174.086 263.886 C 178.990 263.944,186.909 263.944,191.684 263.886 C 196.460 263.828,192.447 263.781,182.768 263.781 C 173.089 263.781,169.182 263.828,174.086 263.886 M201.417 267.094 C 201.418 269.111,201.480 269.889,201.554 268.824 C 201.628 267.758,201.627 266.108,201.552 265.157 C 201.477 264.206,201.416 265.078,201.417 267.094 M164.042 271.494 C 164.042 275.729,164.095 277.411,164.160 275.232 C 164.225 273.053,164.225 269.589,164.160 267.533 C 164.094 265.477,164.041 267.259,164.042 271.494 M164.774 271.127 C 164.773 275.160,164.827 276.860,164.893 274.905 C 164.959 272.950,164.959 269.650,164.893 267.572 C 164.828 265.495,164.774 267.094,164.774 271.127 M200.550 274.610 L 200.550 285.243 193.951 285.243 L 187.351 285.243 187.351 281.760 L 187.351 278.277 176.260 278.363 L 165.170 278.449 176.063 278.552 L 186.957 278.654 187.062 282.040 L 187.168 285.426 194.042 285.526 L 200.917 285.626 200.917 274.802 C 200.917 268.849,200.834 263.978,200.733 263.978 C 200.632 263.978,200.550 268.763,200.550 274.610 M0.733 281.393 L 0.733 290.383 19.157 290.288 L 37.580 290.192 37.580 281.393 L 37.580 272.594 19.157 272.499 L 0.733 272.404 0.733 281.393 M42.826 272.685 C 45.308 272.748,49.267 272.748,51.625 272.684 C 53.983 272.620,51.952 272.569,47.113 272.569 C 42.273 272.569,40.344 272.621,42.826 272.685 M128.405 279.102 L 128.323 285.976 140.238 285.976 L 152.154 285.976 152.071 279.102 L 151.988 272.227 151.880 278.918 L 151.771 285.610 140.238 285.610 L 128.706 285.610 128.597 278.918 L 128.488 272.227 128.405 279.102 M37.397 281.393 L 37.397 290.009 19.248 290.009 L 1.100 290.009 1.100 281.393 L 1.100 272.777 19.248 272.777 L 37.397 272.777 37.397 281.393 M55.891 283.960 C 55.891 290.009,55.941 292.535,56.003 289.574 C 56.064 286.612,56.064 281.662,56.003 278.574 C 55.942 275.487,55.891 277.910,55.891 283.960 M344.472 274.519 C 344.276 275.033,344.319 275.070,344.690 274.702 C 345.050 274.344,350.980 274.244,371.842 274.244 L 398.533 274.244 398.533 291.476 L 398.533 308.708 377.279 308.708 L 356.024 308.708 355.922 303.666 L 355.820 298.625 350.321 298.609 L 344.821 298.594 350.229 298.711 L 355.637 298.828 355.637 303.951 L 355.637 309.074 377.269 309.074 L 398.900 309.074 398.900 291.476 L 398.900 273.877 371.808 273.877 C 346.344 273.877,344.702 273.916,344.472 274.519 M233.712 274.711 C 233.610 274.977,233.572 277.579,233.628 280.493 L 233.731 285.793 240.596 285.893 L 247.461 285.992 247.668 285.159 C 247.781 284.701,247.826 282.099,247.768 279.377 L 247.663 274.427 240.780 274.327 C 235.351 274.249,233.858 274.330,233.712 274.711 M247.113 280.110 L 247.113 285.610 240.513 285.610 L 233.914 285.610 233.914 280.110 L 233.914 274.610 240.513 274.610 L 247.113 274.610 247.113 280.110 M344.799 288.176 C 344.799 293.721,344.850 295.990,344.912 293.217 C 344.974 290.445,344.974 285.907,344.912 283.135 C 344.850 280.362,344.799 282.631,344.799 288.176 M112.488 285.884 C 115.374 285.946,119.993 285.946,122.754 285.883 C 125.514 285.821,123.153 285.771,117.507 285.771 C 111.861 285.771,109.602 285.822,112.488 285.884 M277.452 286.617 C 280.325 286.679,285.027 286.679,287.901 286.617 C 290.775 286.555,288.423 286.504,282.676 286.504 C 276.929 286.504,274.578 286.555,277.452 286.617 M300.574 286.617 C 304.469 286.677,310.739 286.677,314.506 286.617 C 318.274 286.558,315.087 286.509,307.424 286.509 C 299.762 286.509,296.679 286.558,300.574 286.617 M344.033 292.576 C 344.033 294.290,344.096 294.991,344.173 294.134 C 344.250 293.277,344.250 291.874,344.173 291.017 C 344.096 290.160,344.033 290.862,344.033 292.576 M0.907 300.000 L 0.917 308.891 15.215 308.891 L 29.514 308.891 29.524 299.908 L 29.535 290.926 29.426 299.817 L 29.318 308.708 15.215 308.708 L 1.113 308.708 1.005 299.908 L 0.897 291.109 0.907 300.000 M30.237 300.000 L 30.247 308.891 115.215 308.983 L 200.183 309.076 200.183 337.468 C 200.183 353.083,200.307 365.936,200.458 366.030 C 200.610 366.123,200.651 353.305,200.550 337.545 L 200.367 308.891 115.405 308.798 L 30.444 308.706 30.336 299.907 L 30.228 291.109 30.237 300.000 M38.496 295.234 C 38.497 295.385,42.415 295.475,47.204 295.434 C 55.967 295.359,54.957 295.228,44.271 295.053 C 41.095 295.001,38.496 295.082,38.496 295.234 M355.047 304.308 C 355.047 307.030,355.105 308.144,355.176 306.783 C 355.246 305.422,355.246 303.194,355.176 301.833 C 355.105 300.472,355.047 301.586,355.047 304.308 M41.796 309.713 L 53.162 309.818 53.162 337.860 L 53.162 365.903 27.133 365.903 L 1.104 365.903 1.007 337.855 L 0.910 309.807 0.913 337.947 L 0.917 366.086 27.131 366.086 L 53.346 366.086 53.346 337.855 L 53.346 309.624 41.888 309.616 L 30.431 309.608 41.796 309.713 M54.064 309.899 C 53.968 310.151,53.932 322.896,53.984 338.222 L 54.079 366.086 73.419 366.181 C 84.056 366.233,92.759 366.151,92.759 365.998 C 92.759 365.845,84.097 365.764,73.511 365.818 L 54.262 365.916 54.262 337.865 L 54.262 309.814 73.602 309.716 L 92.942 309.618 73.591 309.529 C 58.382 309.460,54.202 309.539,54.064 309.899 M93.661 309.899 C 93.565 310.151,93.529 322.896,93.581 338.222 L 93.676 366.086 109.716 366.182 L 125.756 366.277 125.756 337.859 L 125.756 309.441 109.796 309.441 C 97.366 309.441,93.797 309.542,93.661 309.899 M126.658 309.899 C 126.562 310.151,126.526 322.896,126.578 338.222 L 126.673 366.086 145.738 366.091 L 164.803 366.096 145.830 365.996 L 126.856 365.896 126.856 337.855 L 126.856 309.814 146.013 309.716 L 165.170 309.618 146.001 309.529 C 130.939 309.460,126.796 309.539,126.658 309.899 M165.890 309.895 C 165.793 310.150,165.756 322.896,165.808 338.222 L 165.903 366.086 182.768 366.086 L 199.633 366.086 199.633 337.855 L 199.633 309.624 182.850 309.529 C 169.618 309.454,166.029 309.531,165.890 309.895 M125.390 337.855 L 125.390 365.903 109.624 365.903 L 93.859 365.903 93.859 337.855 L 93.859 309.808 109.624 309.808 L 125.390 309.808 125.390 337.855 M199.450 337.855 L 199.450 365.903 182.768 365.903 L 166.086 365.903 166.086 337.855 L 166.086 309.808 182.768 309.808 L 199.450 309.808 199.450 337.855 M270.394 337.782 L 270.394 365.720 252.429 365.910 L 234.464 366.100 252.612 366.093 L 270.761 366.086 270.855 338.242 C 270.906 322.928,270.824 310.274,270.671 310.121 C 270.519 309.969,270.394 322.416,270.394 337.782 M307.330 337.760 L 307.241 365.896 289.368 365.995 L 271.494 366.093 289.379 366.181 C 303.415 366.251,307.302 366.171,307.439 365.811 C 307.535 365.559,307.570 352.814,307.517 337.489 L 307.420 309.624 307.330 337.760 M308.219 310.052 C 307.913 310.357,307.892 364.895,308.197 365.690 C 308.396 366.209,310.262 366.260,326.070 366.183 L 343.721 366.097 326.123 365.908 L 308.524 365.720 308.524 337.763 C 308.524 322.388,308.511 309.807,308.494 309.807 C 308.477 309.808,308.353 309.918,308.219 310.052 M344.361 337.947 L 344.271 366.269 371.586 366.269 L 398.900 366.269 398.900 338.038 L 398.900 309.808 376.994 309.896 L 355.087 309.985 376.810 310.082 L 398.533 310.180 398.533 338.041 L 398.533 365.903 371.588 365.903 L 344.642 365.903 344.546 337.764 L 344.450 309.624 344.361 337.947 " stroke="none" fill="#7a2f2f" fill-rule="evenodd"></path><path id="path4" d="M201.091 28.048 C 201.091 42.970,201.136 49.021,201.191 41.494 C 201.247 33.968,201.247 21.759,201.191 14.363 C 201.136 6.968,201.091 13.126,201.091 28.048 M131.057 23.190 C 130.960 23.442,130.926 30.742,130.981 39.413 L 131.080 55.179 131.168 39.152 L 131.256 23.126 134.647 23.005 L 138.038 22.884 134.636 22.808 C 132.193 22.753,131.183 22.861,131.057 23.190 M343.685 48.213 C 343.685 51.237,343.742 52.426,343.811 50.854 C 343.880 49.282,343.879 46.807,343.810 45.354 C 343.741 43.902,343.684 45.188,343.685 48.213 M343.708 73.694 C 343.708 84.079,343.755 88.327,343.813 83.135 C 343.870 77.942,343.870 69.445,343.813 64.253 C 343.755 59.060,343.708 63.309,343.708 73.694 M56.628 77.177 C 56.628 84.840,56.677 88.026,56.736 84.259 C 56.796 80.491,56.796 74.222,56.737 70.327 C 56.677 66.432,56.628 69.514,56.628 77.177 M77.079 102.545 C 77.032 117.304,77.117 129.456,77.269 129.549 C 77.518 129.704,77.515 110.012,77.262 85.243 C 77.208 80.000,77.126 87.786,77.079 102.545 M241.705 76.165 C 242.864 76.237,244.762 76.237,245.921 76.165 C 247.081 76.092,246.132 76.032,243.813 76.032 C 241.494 76.032,240.545 76.092,241.705 76.165 M320.611 96.609 C 320.611 107.901,320.658 112.574,320.715 106.992 C 320.772 101.411,320.772 92.171,320.715 86.460 C 320.658 80.750,320.611 85.316,320.611 96.609 M179.969 82.224 C 180.123 82.378,184.941 82.461,190.675 82.407 L 201.100 82.309 190.394 82.126 C 184.505 82.025,179.814 82.070,179.969 82.224 M56.632 109.258 C 56.632 119.038,56.679 123.038,56.737 118.148 C 56.794 113.258,56.794 105.257,56.737 100.367 C 56.679 95.477,56.632 99.478,56.632 109.258 M343.707 109.808 C 343.707 118.882,343.755 122.541,343.813 117.940 C 343.871 113.339,343.871 105.914,343.813 101.442 C 343.754 96.969,343.707 100.733,343.707 109.808 M320.588 123.740 C 320.589 126.966,320.645 128.237,320.713 126.564 C 320.781 124.891,320.781 122.251,320.712 120.698 C 320.644 119.144,320.588 120.513,320.588 123.740 M343.709 145.738 C 343.709 156.224,343.756 160.460,343.813 155.153 C 343.870 149.846,343.870 141.266,343.813 136.088 C 343.755 130.910,343.708 135.252,343.709 145.738 M56.632 145.555 C 56.632 155.536,56.679 159.620,56.737 154.629 C 56.794 149.638,56.794 141.471,56.737 136.480 C 56.679 131.489,56.632 135.573,56.632 145.555 M232.626 182.218 C 232.626 211.962,232.669 224.129,232.722 209.258 C 232.775 194.386,232.775 170.050,232.722 155.179 C 232.669 140.307,232.626 152.475,232.626 182.218 M176.169 129.056 L 151.604 129.247 176.055 129.335 C 192.056 129.392,200.585 129.296,200.733 129.056 C 200.858 128.854,200.909 128.729,200.847 128.777 C 200.784 128.825,189.679 128.951,176.169 129.056 M80.745 157.195 L 80.829 165.903 80.935 157.379 L 81.040 148.854 91.292 148.854 L 101.545 148.854 101.650 157.379 L 101.756 165.903 101.840 157.195 L 101.925 148.488 91.292 148.488 L 80.660 148.488 80.745 157.195 M143.078 148.762 L 179.282 148.858 179.375 197.160 L 179.468 245.463 190.651 245.471 L 201.833 245.480 190.744 245.374 L 179.654 245.269 179.561 196.970 L 179.468 148.671 143.171 148.668 L 106.874 148.666 143.078 148.762 M199.986 148.946 C 199.533 150.134,200.006 223.405,200.467 223.498 C 200.725 223.550,200.766 223.509,200.559 223.407 C 199.962 223.110,200.043 148.972,200.642 148.730 C 201.001 148.586,200.998 148.539,200.630 148.517 C 200.372 148.501,200.082 148.694,199.986 148.946 M56.631 181.485 C 56.631 191.063,56.679 194.982,56.737 190.192 C 56.795 185.403,56.795 177.566,56.737 172.777 C 56.679 167.988,56.631 171.907,56.631 181.485 M343.707 182.035 C 343.707 191.109,343.755 194.769,343.813 190.167 C 343.871 185.566,343.871 178.142,343.813 173.669 C 343.754 169.196,343.707 172.961,343.707 182.035 M80.815 174.335 C 80.815 178.570,80.869 180.252,80.934 178.074 C 80.999 175.895,80.998 172.430,80.933 170.374 C 80.868 168.318,80.815 170.101,80.815 174.335 M101.713 174.335 C 101.714 178.570,101.767 180.252,101.832 178.074 C 101.897 175.895,101.897 172.430,101.831 170.374 C 101.766 168.318,101.713 170.101,101.713 174.335 M308.799 175.892 C 310.967 175.957,314.514 175.957,316.682 175.892 C 318.850 175.827,317.076 175.774,312.741 175.774 C 308.405 175.774,306.632 175.827,308.799 175.892 M80.818 191.567 C 80.818 196.407,80.870 198.336,80.934 195.854 C 80.998 193.373,80.997 189.413,80.934 187.055 C 80.870 184.697,80.818 186.728,80.818 191.567 M313.196 197.522 L 321.168 197.631 321.266 222.830 L 321.364 248.029 321.360 222.731 L 321.357 197.434 313.291 197.423 L 305.225 197.413 313.196 197.522 M56.632 217.415 C 56.632 227.397,56.679 231.480,56.737 226.489 C 56.794 221.499,56.794 213.332,56.737 208.341 C 56.679 203.350,56.632 207.434,56.632 217.415 M343.708 217.782 C 343.708 227.965,343.755 232.131,343.813 227.039 C 343.870 221.948,343.870 213.616,343.813 208.524 C 343.755 203.433,343.708 207.599,343.708 217.782 M80.829 217.599 C 80.829 226.673,80.876 230.332,80.935 225.731 C 80.993 221.130,80.993 213.705,80.934 209.233 C 80.876 204.760,80.829 208.524,80.829 217.599 M80.810 241.063 C 80.810 244.491,80.865 245.943,80.932 244.289 C 81.000 242.636,81.001 239.831,80.933 238.056 C 80.866 236.282,80.810 237.635,80.810 241.063 M56.632 253.896 C 56.632 263.776,56.679 267.766,56.737 262.761 C 56.794 257.756,56.794 249.672,56.737 244.796 C 56.679 239.920,56.632 244.015,56.632 253.896 M343.708 255.179 C 343.708 265.160,343.755 269.244,343.813 264.253 C 343.870 259.262,343.870 251.095,343.813 246.104 C 343.755 241.114,343.708 245.197,343.708 255.179 M155.545 248.119 C 157.108 248.187,159.665 248.187,161.228 248.119 C 162.791 248.050,161.512 247.994,158.387 247.994 C 155.261 247.994,153.983 248.050,155.545 248.119 M80.831 267.644 C 80.831 278.231,80.877 282.562,80.935 277.269 C 80.992 271.975,80.992 263.313,80.935 258.020 C 80.877 252.727,80.831 257.058,80.831 267.644 M248.363 254.629 C 248.362 258.057,248.417 259.509,248.485 257.855 C 248.553 256.201,248.553 253.396,248.486 251.622 C 248.419 249.848,248.363 251.201,248.363 254.629 M321.344 267.644 C 321.344 278.231,321.391 282.562,321.448 277.269 C 321.505 271.975,321.505 263.313,321.448 258.020 C 321.391 252.727,321.344 257.058,321.344 267.644 M248.363 267.461 C 248.362 270.889,248.417 272.341,248.485 270.687 C 248.553 269.033,248.553 266.229,248.486 264.454 C 248.419 262.680,248.363 264.033,248.363 267.461 M56.462 284.143 L 56.462 295.875 47.129 295.875 L 37.797 295.875 37.659 293.401 L 37.522 290.926 37.551 293.492 L 37.580 296.059 47.204 296.156 L 56.829 296.254 56.829 284.332 C 56.829 277.775,56.746 272.411,56.645 272.411 C 56.544 272.411,56.462 277.690,56.462 284.143 M248.138 280.477 C 248.078 283.905,248.153 286.710,248.304 286.710 C 248.456 286.710,248.579 283.905,248.579 280.477 C 248.579 277.049,248.504 274.244,248.413 274.244 C 248.321 274.244,248.197 277.049,248.138 280.477 M343.670 277.544 C 343.670 279.459,343.732 280.243,343.808 279.285 C 343.883 278.327,343.883 276.760,343.808 275.802 C 343.732 274.844,343.670 275.628,343.670 277.544 M169.294 279.284 C 172.369 279.346,177.401 279.346,180.477 279.284 C 183.552 279.223,181.036 279.173,174.885 279.173 C 168.735 279.173,166.219 279.223,169.294 279.284 M186.383 283.043 C 186.383 284.959,186.445 285.742,186.521 284.785 C 186.596 283.827,186.596 282.259,186.521 281.302 C 186.445 280.344,186.383 281.127,186.383 283.043 M344.058 297.615 L 344.088 299.725 349.496 299.740 L 354.905 299.755 349.606 299.639 L 344.307 299.522 344.168 297.514 L 344.028 295.505 344.058 297.615 M233.716 309.166 C 233.620 309.418,233.585 322.328,233.638 337.855 L 233.735 366.086 233.824 337.581 L 233.914 309.076 294.500 308.983 L 355.087 308.889 294.489 308.798 C 246.281 308.726,233.855 308.801,233.716 309.166 M200.865 365.998 C 201.019 366.152,208.394 366.234,217.254 366.182 L 233.364 366.086 216.975 365.903 C 207.961 365.802,200.712 365.845,200.865 365.998 " stroke="none" fill="#9b8484" fill-rule="evenodd"></path></g></svg>